<svg width="1072" height="159" viewBox="0 0 1072 159" fill="none" xmlns="http://www.w3.org/2000/svg" id="process">
<path d="M8.338 134.264C6.798 134.264 5.49267 133.978 4.422 133.406C3.366 132.834 2.55933 131.969 2.002 130.81C1.45933 129.651 1.188 128.199 1.188 126.454C1.188 123.843 1.81867 121.893 3.08 120.602C4.34133 119.297 6.10867 118.644 8.382 118.644C9.68733 118.644 10.8313 118.857 11.814 119.282C12.8113 119.693 13.5887 120.316 14.146 121.152C14.718 121.973 15.004 123.022 15.004 124.298H13.244C13.244 123.345 13.046 122.567 12.65 121.966C12.254 121.35 11.6893 120.895 10.956 120.602C10.2373 120.294 9.372 120.14 8.36 120.14C7.27467 120.14 6.32867 120.353 5.522 120.778C4.71533 121.203 4.092 121.871 3.652 122.78C3.212 123.675 2.992 124.848 2.992 126.3V126.762C2.992 128.185 3.212 129.336 3.652 130.216C4.092 131.096 4.71533 131.741 5.522 132.152C6.32867 132.563 7.282 132.768 8.382 132.768C9.394 132.768 10.2667 132.621 11 132.328C11.7333 132.02 12.298 131.565 12.694 130.964C13.09 130.348 13.288 129.563 13.288 128.61H15.004C15.004 129.901 14.7107 130.964 14.124 131.8C13.552 132.636 12.7673 133.259 11.77 133.67C10.7727 134.066 9.62867 134.264 8.338 134.264ZM22.2293 134.264C21.1146 134.264 20.1613 134.051 19.3693 133.626C18.5919 133.186 17.9979 132.519 17.5873 131.624C17.1913 130.729 16.9933 129.593 16.9933 128.214C16.9933 126.821 17.1913 125.684 17.5873 124.804C17.9979 123.909 18.5919 123.249 19.3693 122.824C20.1613 122.384 21.1146 122.164 22.2293 122.164C23.3733 122.164 24.3266 122.384 25.0893 122.824C25.8666 123.249 26.4533 123.909 26.8493 124.804C27.2599 125.684 27.4653 126.821 27.4653 128.214C27.4653 129.593 27.2599 130.729 26.8493 131.624C26.4533 132.519 25.8666 133.186 25.0893 133.626C24.3266 134.051 23.3733 134.264 22.2293 134.264ZM22.2293 132.922C23.0066 132.922 23.6593 132.768 24.1873 132.46C24.7153 132.152 25.1186 131.675 25.3973 131.03C25.6759 130.37 25.8153 129.519 25.8153 128.478V127.95C25.8153 126.909 25.6759 126.065 25.3973 125.42C25.1186 124.76 24.7153 124.276 24.1873 123.968C23.6593 123.66 23.0066 123.506 22.2293 123.506C21.4519 123.506 20.7993 123.66 20.2713 123.968C19.7433 124.276 19.3399 124.76 19.0613 125.42C18.7826 126.065 18.6433 126.909 18.6433 127.95V128.478C18.6433 129.519 18.7826 130.37 19.0613 131.03C19.3399 131.675 19.7433 132.152 20.2713 132.46C20.7993 132.768 21.4519 132.922 22.2293 132.922ZM29.8779 134V122.428H31.1319L31.2859 124.254H31.4399C31.7626 123.726 32.1292 123.315 32.5399 123.022C32.9506 122.714 33.3906 122.494 33.8599 122.362C34.3439 122.23 34.8572 122.164 35.3999 122.164C36.1332 122.164 36.7712 122.289 37.3139 122.538C37.8712 122.773 38.3039 123.161 38.6119 123.704C38.9199 124.247 39.0739 124.987 39.0739 125.926V134H37.4899V126.08C37.4899 125.567 37.4239 125.149 37.2919 124.826C37.1599 124.503 36.9766 124.254 36.7419 124.078C36.5072 123.887 36.2286 123.755 35.9059 123.682C35.5979 123.609 35.2532 123.572 34.8719 123.572C34.2852 123.572 33.7279 123.719 33.1999 124.012C32.6866 124.291 32.2686 124.694 31.9459 125.222C31.6232 125.75 31.4619 126.395 31.4619 127.158V134H29.8779ZM46.262 134.264C45.1914 134.264 44.282 134.044 43.534 133.604C42.8007 133.164 42.2434 132.497 41.862 131.602C41.4807 130.707 41.29 129.578 41.29 128.214C41.29 126.865 41.4807 125.743 41.862 124.848C42.2434 123.953 42.808 123.286 43.556 122.846C44.3187 122.391 45.25 122.164 46.35 122.164C47.1567 122.164 47.8387 122.274 48.396 122.494C48.968 122.699 49.43 123 49.782 123.396C50.1487 123.792 50.4127 124.269 50.574 124.826C50.7354 125.383 50.816 126.007 50.816 126.696H49.254C49.254 125.948 49.1514 125.347 48.946 124.892C48.7554 124.423 48.44 124.078 48 123.858C47.5747 123.623 47.01 123.506 46.306 123.506C45.646 123.506 45.0594 123.653 44.546 123.946C44.0474 124.239 43.6514 124.709 43.358 125.354C43.0794 125.985 42.94 126.85 42.94 127.95V128.478C42.94 129.519 43.072 130.37 43.336 131.03C43.6 131.675 43.9814 132.152 44.48 132.46C44.9934 132.768 45.602 132.922 46.306 132.922C47.0394 132.922 47.6187 132.797 48.044 132.548C48.484 132.284 48.7994 131.917 48.99 131.448C49.1807 130.964 49.276 130.392 49.276 129.732H50.816C50.816 130.348 50.7354 130.935 50.574 131.492C50.4127 132.035 50.1487 132.511 49.782 132.922C49.43 133.333 48.9607 133.663 48.374 133.912C47.802 134.147 47.098 134.264 46.262 134.264ZM57.6115 134.264C56.5115 134.264 55.5801 134.051 54.8175 133.626C54.0548 133.186 53.4755 132.519 53.0795 131.624C52.6835 130.729 52.4855 129.593 52.4855 128.214C52.4855 126.821 52.6835 125.684 53.0795 124.804C53.4755 123.909 54.0621 123.249 54.8395 122.824C55.6168 122.384 56.5848 122.164 57.7435 122.164C58.8141 122.164 59.7088 122.377 60.4275 122.802C61.1608 123.227 61.7108 123.843 62.0775 124.65C62.4588 125.457 62.6495 126.447 62.6495 127.62V128.632H54.1355C54.1355 129.644 54.2748 130.473 54.5535 131.118C54.8321 131.763 55.2281 132.233 55.7415 132.526C56.2695 132.805 56.9148 132.944 57.6775 132.944C58.2348 132.944 58.7188 132.871 59.1295 132.724C59.5548 132.577 59.8995 132.379 60.1635 132.13C60.4421 131.866 60.6548 131.558 60.8015 131.206C60.9481 130.854 61.0215 130.487 61.0215 130.106H62.5615C62.5615 130.678 62.4515 131.221 62.2315 131.734C62.0261 132.233 61.7181 132.673 61.3075 133.054C60.9115 133.435 60.4055 133.736 59.7895 133.956C59.1735 134.161 58.4475 134.264 57.6115 134.264ZM54.1355 127.378H60.9995C60.9995 126.645 60.9115 126.036 60.7355 125.552C60.5741 125.053 60.3468 124.657 60.0535 124.364C59.7601 124.056 59.4081 123.836 58.9975 123.704C58.6015 123.572 58.1541 123.506 57.6555 123.506C56.9368 123.506 56.3208 123.645 55.8075 123.924C55.2941 124.188 54.8981 124.606 54.6195 125.178C54.3555 125.75 54.1941 126.483 54.1355 127.378ZM65.0478 137.806V122.428H66.3018L66.4778 124.122H66.6318C67.0425 123.462 67.5558 122.971 68.1718 122.648C68.7878 122.325 69.4845 122.164 70.2618 122.164C71.2298 122.164 72.0511 122.377 72.7258 122.802C73.4151 123.227 73.9358 123.895 74.2878 124.804C74.6545 125.699 74.8378 126.872 74.8378 128.324C74.8378 129.673 74.6545 130.788 74.2878 131.668C73.9211 132.548 73.3931 133.201 72.7038 133.626C72.0291 134.051 71.2298 134.264 70.3058 134.264C69.8365 134.264 69.3818 134.205 68.9418 134.088C68.5018 133.971 68.0985 133.78 67.7318 133.516C67.3651 133.252 67.0498 132.915 66.7858 132.504H66.6318V137.806H65.0478ZM69.8878 132.878C70.6211 132.878 71.2298 132.731 71.7138 132.438C72.2125 132.13 72.5791 131.653 72.8138 131.008C73.0631 130.363 73.1878 129.527 73.1878 128.5V127.95C73.1878 126.85 73.0558 125.985 72.7918 125.354C72.5278 124.709 72.1538 124.247 71.6698 123.968C71.2005 123.689 70.6431 123.55 69.9978 123.55C69.2058 123.55 68.5605 123.726 68.0618 124.078C67.5631 124.415 67.1965 124.921 66.9618 125.596C66.7418 126.256 66.6318 127.07 66.6318 128.038V128.412C66.6318 129.321 66.7271 130.069 66.9178 130.656C67.1085 131.243 67.3578 131.697 67.6658 132.02C67.9738 132.343 68.3185 132.57 68.6998 132.702C69.0958 132.819 69.4918 132.878 69.8878 132.878ZM79.8029 134.242C79.2749 134.242 78.8496 134.147 78.5269 133.956C78.2189 133.765 77.9989 133.501 77.8669 133.164C77.7496 132.827 77.6909 132.453 77.6909 132.042V123.77H76.1289V122.428H77.6909L77.9989 119.216H79.2749V122.428H81.4969V123.77H79.2749V131.756C79.2749 132.152 79.3263 132.445 79.4289 132.636C79.5463 132.827 79.7956 132.922 80.1769 132.922H81.4969V133.934C81.3503 133.993 81.1743 134.044 80.9689 134.088C80.7783 134.147 80.5803 134.183 80.3749 134.198C80.1696 134.227 79.9789 134.242 79.8029 134.242Z" fill="#2D2D2D"/>
<path d="M56.6727 74.1972L56.6627 74.1899L44.6352 62.3317L44.6241 62.3208L44.6134 62.3114L44.613 62.3111L44.613 62.3111L44.6127 62.3109L44.6081 62.3067C44.603 62.3021 44.5943 62.2942 44.5823 62.2829C44.5583 62.2603 44.5209 62.2243 44.4722 62.1747C44.3747 62.0753 44.2317 61.9212 44.0588 61.7102C43.713 61.2882 43.2477 60.639 42.7873 59.7449C41.9066 58.0345 41.0377 55.4169 41.0661 51.7606H55.8745C58.8503 51.7606 61.1696 54.0574 61.1696 56.9742V72.7437C61.1696 74.1141 60.1899 75.2147 58.888 75.2147H58.3111C57.9074 75.0082 57.5052 74.7598 57.1922 74.5541C57.0236 74.4433 56.8832 74.3464 56.7854 74.2775C56.7365 74.243 56.6983 74.2157 56.6727 74.1972Z" stroke="black"/>
<path d="M41.0148 37.5941C41.0145 35.3691 39.7702 33.3605 37.9512 32.2147H55.6914C58.6424 32.2147 61.1701 34.7126 61.1701 37.595V55.0618C60.0064 53.2543 57.9533 52.0218 55.6914 52.0218H41.0642L41.0148 37.595C41.0148 37.5947 41.0148 37.5944 41.0148 37.5941Z" stroke="black"/>
<path d="M30.4585 48.3063L30.4582 48.3059L30.4579 48.3056L30.4576 48.3052L30.4481 48.2946L30.4369 48.2837L18.525 36.5748L18.5182 36.5657C18.4996 36.5408 18.4722 36.5037 18.4376 36.4561C18.3685 36.361 18.2712 36.2244 18.16 36.0604C17.9543 35.7572 17.7065 35.3683 17.5 34.9779V34.6485C17.5 33.353 18.6455 32.2147 19.9846 32.2147H35.8261C38.7723 32.2147 41.0657 34.4813 41.0657 37.3566V51.7599C37.3885 51.788 34.7558 50.9412 33.036 50.0829C32.1373 49.6344 31.4849 49.1813 31.061 48.8446C30.8491 48.6763 30.6944 48.5372 30.5946 48.4423C30.5448 48.3949 30.5087 48.3586 30.4861 48.3353C30.4748 48.3236 30.4668 48.3152 30.4623 48.3103L30.4585 48.3063Z" stroke="black"/>
<path d="M67 52.2147H208" stroke="#58595B" stroke-dasharray="5 5"/>
<path d="M226.82 133V119.28H231.76C233.227 119.28 234.467 119.52 235.48 120C236.507 120.467 237.287 121.207 237.82 122.22C238.367 123.22 238.64 124.527 238.64 126.14C238.64 127.727 238.367 129.027 237.82 130.04C237.287 131.053 236.507 131.8 235.48 132.28C234.467 132.76 233.227 133 231.76 133H226.82ZM228.4 131.64H231.7C232.513 131.64 233.247 131.547 233.9 131.36C234.553 131.16 235.113 130.853 235.58 130.44C236.047 130.013 236.4 129.467 236.64 128.8C236.88 128.133 237 127.327 237 126.38V125.96C237 124.987 236.88 124.167 236.64 123.5C236.4 122.82 236.047 122.273 235.58 121.86C235.127 121.433 234.573 121.127 233.92 120.94C233.267 120.74 232.527 120.64 231.7 120.64H228.4V131.64ZM245.206 133.24C244.206 133.24 243.359 133.047 242.666 132.66C241.973 132.26 241.446 131.653 241.086 130.84C240.726 130.027 240.546 128.993 240.546 127.74C240.546 126.473 240.726 125.44 241.086 124.64C241.446 123.827 241.979 123.227 242.686 122.84C243.393 122.44 244.273 122.24 245.326 122.24C246.299 122.24 247.113 122.433 247.766 122.82C248.433 123.207 248.933 123.767 249.266 124.5C249.613 125.233 249.786 126.133 249.786 127.2V128.12H242.046C242.046 129.04 242.173 129.793 242.426 130.38C242.679 130.967 243.039 131.393 243.506 131.66C243.986 131.913 244.573 132.04 245.266 132.04C245.773 132.04 246.213 131.973 246.586 131.84C246.973 131.707 247.286 131.527 247.526 131.3C247.779 131.06 247.973 130.78 248.106 130.46C248.239 130.14 248.306 129.807 248.306 129.46H249.706C249.706 129.98 249.606 130.473 249.406 130.94C249.219 131.393 248.939 131.793 248.566 132.14C248.206 132.487 247.746 132.76 247.186 132.96C246.626 133.147 245.966 133.24 245.206 133.24ZM242.046 126.98H248.286C248.286 126.313 248.206 125.76 248.046 125.32C247.899 124.867 247.693 124.507 247.426 124.24C247.159 123.96 246.839 123.76 246.466 123.64C246.106 123.52 245.699 123.46 245.246 123.46C244.593 123.46 244.033 123.587 243.566 123.84C243.099 124.08 242.739 124.46 242.486 124.98C242.246 125.5 242.099 126.167 242.046 126.98ZM255.466 133.24C254.773 133.24 254.16 133.167 253.626 133.02C253.093 132.887 252.646 132.687 252.286 132.42C251.94 132.14 251.673 131.807 251.486 131.42C251.313 131.033 251.226 130.587 251.226 130.08C251.226 130.027 251.226 129.973 251.226 129.92C251.226 129.853 251.233 129.793 251.246 129.74H252.666C252.653 129.807 252.646 129.867 252.646 129.92C252.646 129.96 252.646 130 252.646 130.04C252.66 130.56 252.786 130.967 253.026 131.26C253.266 131.54 253.606 131.74 254.046 131.86C254.486 131.98 254.993 132.04 255.566 132.04C256.06 132.04 256.5 131.973 256.886 131.84C257.286 131.693 257.6 131.487 257.826 131.22C258.066 130.953 258.186 130.627 258.186 130.24C258.186 129.747 258.033 129.373 257.726 129.12C257.433 128.867 257.046 128.673 256.566 128.54C256.086 128.393 255.586 128.24 255.066 128.08C254.64 127.96 254.22 127.833 253.806 127.7C253.393 127.553 253.013 127.373 252.666 127.16C252.333 126.947 252.066 126.673 251.866 126.34C251.666 126.007 251.566 125.587 251.566 125.08C251.566 124.64 251.653 124.247 251.826 123.9C252.013 123.553 252.273 123.26 252.606 123.02C252.953 122.767 253.373 122.573 253.866 122.44C254.36 122.307 254.92 122.24 255.546 122.24C256.24 122.24 256.833 122.32 257.326 122.48C257.82 122.64 258.22 122.86 258.526 123.14C258.833 123.407 259.06 123.713 259.206 124.06C259.353 124.393 259.426 124.747 259.426 125.12C259.426 125.173 259.42 125.233 259.406 125.3C259.406 125.367 259.406 125.427 259.406 125.48H257.986V125.22C257.986 124.94 257.913 124.667 257.766 124.4C257.633 124.133 257.386 123.907 257.026 123.72C256.68 123.533 256.16 123.44 255.466 123.44C255.053 123.44 254.693 123.48 254.386 123.56C254.093 123.627 253.84 123.727 253.626 123.86C253.426 123.993 253.273 124.16 253.166 124.36C253.073 124.547 253.026 124.767 253.026 125.02C253.026 125.407 253.146 125.707 253.386 125.92C253.64 126.12 253.966 126.287 254.366 126.42C254.766 126.54 255.193 126.673 255.646 126.82C256.1 126.953 256.56 127.093 257.026 127.24C257.506 127.387 257.946 127.567 258.346 127.78C258.746 127.993 259.066 128.28 259.306 128.64C259.546 128.987 259.666 129.447 259.666 130.02C259.666 130.553 259.56 131.027 259.346 131.44C259.133 131.84 258.84 132.173 258.466 132.44C258.093 132.707 257.646 132.907 257.126 133.04C256.62 133.173 256.066 133.24 255.466 133.24ZM261.869 120.32V118.54H263.309V120.32H261.869ZM261.869 133V122.48H263.309V133H261.869ZM267.927 136.64C267.42 136.64 266.947 136.527 266.507 136.3C266.08 136.087 265.74 135.78 265.487 135.38C265.233 134.993 265.107 134.54 265.107 134.02C265.107 133.433 265.26 132.933 265.567 132.52C265.887 132.107 266.287 131.8 266.767 131.6C266.42 131.453 266.153 131.233 265.967 130.94C265.78 130.647 265.687 130.327 265.687 129.98C265.687 129.527 265.853 129.14 266.187 128.82C266.52 128.487 266.927 128.267 267.407 128.16C266.967 127.867 266.613 127.493 266.347 127.04C266.093 126.587 265.967 126.1 265.967 125.58C265.967 124.927 266.12 124.353 266.427 123.86C266.733 123.353 267.193 122.96 267.807 122.68C268.433 122.387 269.213 122.24 270.147 122.24C270.587 122.24 270.993 122.273 271.367 122.34C271.753 122.407 272.1 122.507 272.407 122.64C272.873 122.467 273.233 122.22 273.487 121.9C273.74 121.567 273.907 121.2 273.987 120.8H275.427C275.413 121.173 275.32 121.533 275.147 121.88C274.973 122.227 274.733 122.52 274.427 122.76C274.12 123 273.753 123.153 273.327 123.22C273.673 123.54 273.927 123.9 274.087 124.3C274.247 124.7 274.327 125.127 274.327 125.58C274.327 126.207 274.173 126.773 273.867 127.28C273.573 127.773 273.12 128.167 272.507 128.46C271.907 128.753 271.133 128.9 270.187 128.9H268.527C268.127 128.9 267.8 128.98 267.547 129.14C267.293 129.287 267.167 129.54 267.167 129.9C267.167 130.207 267.3 130.447 267.567 130.62C267.833 130.793 268.167 130.88 268.567 130.88H272.687C273.46 130.88 274.087 131.14 274.567 131.66C275.06 132.18 275.307 132.833 275.307 133.62C275.307 134.18 275.167 134.687 274.887 135.14C274.607 135.607 274.22 135.973 273.727 136.24C273.247 136.507 272.68 136.64 272.027 136.64H267.927ZM268.247 135.5H271.987C272.333 135.5 272.647 135.427 272.927 135.28C273.207 135.133 273.427 134.927 273.587 134.66C273.76 134.407 273.847 134.133 273.847 133.84C273.847 133.333 273.7 132.927 273.407 132.62C273.113 132.313 272.747 132.16 272.307 132.16H268.247C267.793 132.16 267.4 132.327 267.067 132.66C266.733 132.98 266.567 133.373 266.567 133.84C266.567 134.347 266.727 134.747 267.047 135.04C267.38 135.347 267.78 135.5 268.247 135.5ZM270.147 127.76C271.08 127.76 271.767 127.567 272.207 127.18C272.66 126.78 272.887 126.247 272.887 125.58C272.887 124.9 272.66 124.367 272.207 123.98C271.767 123.58 271.08 123.38 270.147 123.38C269.24 123.38 268.56 123.58 268.107 123.98C267.653 124.367 267.427 124.9 267.427 125.58C267.427 125.993 267.527 126.367 267.727 126.7C267.927 127.033 268.227 127.293 268.627 127.48C269.04 127.667 269.547 127.76 270.147 127.76ZM276.927 133V122.48H278.067L278.207 124.14H278.347C278.641 123.66 278.974 123.287 279.347 123.02C279.721 122.74 280.121 122.54 280.547 122.42C280.987 122.3 281.454 122.24 281.947 122.24C282.614 122.24 283.194 122.353 283.687 122.58C284.194 122.793 284.587 123.147 284.867 123.64C285.147 124.133 285.287 124.807 285.287 125.66V133H283.847V125.8C283.847 125.333 283.787 124.953 283.667 124.66C283.547 124.367 283.381 124.14 283.167 123.98C282.954 123.807 282.701 123.687 282.407 123.62C282.127 123.553 281.814 123.52 281.467 123.52C280.934 123.52 280.427 123.653 279.947 123.92C279.481 124.173 279.101 124.54 278.807 125.02C278.514 125.5 278.367 126.087 278.367 126.78V133H276.927Z" fill="#2D2D2D"/>
<g clip-path="url(#clip0_523:2886)">
<path d="M275.5 66.2999C276.418 66.5217 290.543 66.5463 291.511 66.3246C291.535 66.0536 291.585 65.7579 291.585 65.4868C291.585 53.7832 291.585 42.0796 291.585 30.376C291.585 27.0497 288.904 24.4379 285.429 24.364C283.294 24.3147 281.16 24.364 279 24.3394C278.727 24.3394 278.429 24.3394 278.156 24.2901C277.809 24.2408 277.61 24.0191 277.585 23.6495C277.56 23.2799 277.759 23.0581 278.082 22.9596C278.28 22.8857 278.504 22.9103 278.727 22.9103C280.961 22.9103 283.195 22.8857 285.429 22.9103C289.028 22.9842 292.007 25.3249 292.801 28.7005C292.975 29.415 292.975 30.1542 292.975 30.8934C292.975 43.1144 292.975 55.3355 292.975 67.5812C292.975 68.1232 292.95 68.6899 292.975 69.232C293.025 72.1148 290.741 75.6875 286.745 76.402C286.149 76.5006 285.504 76.5499 284.908 76.5745C277.61 76.5745 270.337 76.5745 263.039 76.5745C262.667 76.5745 262.294 76.5745 261.798 76.5745C261.897 78.9152 262.17 81.1574 262.418 83.4981C262.816 83.5474 263.188 83.5967 263.535 83.5967C265.199 83.5967 266.887 83.5967 268.55 83.5967C268.823 83.5967 269.145 83.572 269.369 83.6706C269.567 83.7691 269.816 84.0648 269.816 84.2619C269.816 84.459 269.567 84.7547 269.369 84.8533C269.145 84.9765 268.823 84.9518 268.55 84.9518C259.191 84.9518 249.809 84.9518 240.45 84.9518C240.301 84.9518 240.128 84.9518 239.979 84.9272C239.408 84.8779 239.184 84.6562 239.209 84.2126C239.234 83.7445 239.532 83.5967 239.954 83.572C240.202 83.572 240.45 83.572 240.699 83.572C242.238 83.572 243.801 83.572 245.34 83.572C245.713 83.572 246.085 83.5474 246.532 83.5228C246.879 81.2313 246.979 78.9891 247.227 76.6238C246.755 76.5991 246.358 76.5499 245.986 76.5499C238.613 76.5499 231.216 76.5499 223.844 76.5499C222.106 76.5499 220.518 76.0817 219.152 75.0469C217.117 73.5931 216 71.5481 216 69.0103C216 56.0993 216 43.213 216 30.3021C216 26.8033 218.582 23.748 222.057 23.1074C222.727 22.9842 223.422 22.9349 224.092 22.9103C225.979 22.8857 227.865 22.9103 229.777 22.9103C230 22.9103 230.223 22.8857 230.422 22.9103C230.943 22.9596 231.191 23.2306 231.167 23.6741C231.142 24.1423 230.844 24.3147 230.422 24.3394C230.174 24.364 229.926 24.364 229.677 24.364C227.766 24.364 225.83 24.3394 223.918 24.3886C223.124 24.4133 222.305 24.5118 221.535 24.7582C219.053 25.596 217.539 27.7149 217.415 30.3513C217.415 30.5977 217.415 30.8441 217.415 31.0905C217.415 42.3999 217.415 53.6847 217.415 64.9941C217.415 65.4376 217.465 65.9057 217.489 66.2999C218.383 66.5463 233.103 66.5463 233.996 66.2999C233.972 66.0536 233.947 65.7825 233.922 65.5361C233.723 63.5896 233.401 61.6185 233.351 59.672C233.277 56.3703 233.798 53.118 234.691 49.9149C235.138 48.338 235.585 46.7857 236.032 45.2088C236.082 45.0363 236.106 44.8392 236.156 44.5682C235.809 44.3957 235.461 44.2232 235.138 44.0261C232.184 42.4245 230.174 40.0592 229.528 36.7083C229.032 34.0719 229.33 31.5094 230.794 29.2426C231.613 27.986 232.631 26.8526 233.599 25.6945C234.443 24.709 235.387 23.7973 236.206 22.8117C237.794 20.8899 238.564 18.7216 238.316 16.2084C238.291 16.0606 238.291 15.8881 238.316 15.7403C238.39 15.1736 238.738 14.9272 239.284 15.075C239.457 15.1243 239.631 15.1982 239.805 15.2968C244.894 18.1303 248.816 21.974 251 27.4439C251.794 29.4643 252.241 31.6079 252.216 33.7515C252.167 38.2112 250.106 41.5622 246.284 43.8783C245.986 44.0507 245.688 44.2232 245.39 44.3957C245.365 44.4203 245.365 44.445 245.266 44.5682C245.34 44.8146 245.415 45.1349 245.489 45.4552C246.259 48.2394 247.152 50.999 247.649 53.8571C248.319 57.7501 248.294 61.6431 247.574 65.5115C247.525 65.7825 247.5 66.0536 247.475 66.2999C248.245 66.5463 256.337 66.571 257.355 66.3492C257.379 65.955 257.404 65.5361 257.404 65.1173C257.404 53.1426 257.429 41.1679 257.379 29.1687C257.379 27.0497 257.95 25.2017 259.291 23.5263C261.326 21.0131 263.262 18.4013 265.223 15.8142C265.348 15.6664 265.447 15.5185 265.571 15.3707C266.043 14.8533 266.415 14.8533 266.911 15.3461C267.011 15.4446 267.11 15.5924 267.209 15.691C269.418 18.426 271.628 21.1609 273.887 23.8712C275.028 25.2757 275.574 26.8279 275.574 28.6512C275.55 40.7491 275.574 52.8469 275.574 64.9694C275.5 65.4129 275.5 65.8564 275.5 66.2999ZM217.564 67.9508C217.514 68.2218 217.44 68.4682 217.44 68.6899C217.44 69.8726 217.663 71.0307 218.309 72.0409C219.599 74.0613 221.436 75.1701 223.869 75.1701C227.816 75.1701 231.738 75.1701 235.684 75.1701C252.167 75.1701 268.624 75.1701 285.106 75.1701C288.358 75.1701 290.965 73.0511 291.511 69.9712C291.635 69.3059 291.709 68.6407 291.411 67.9508C266.812 67.9508 242.213 67.9508 217.564 67.9508ZM258.918 32.2978C258.67 33.308 258.695 65.61 258.918 66.3246C259.787 66.5463 273.191 66.5217 273.911 66.2999C274.11 65.3637 274.06 33.0616 273.862 32.2978C268.922 32.2978 263.957 32.2978 258.918 32.2978ZM239.879 17.0954C239.83 17.3172 239.755 17.4404 239.755 17.5882C239.681 19.9536 238.738 21.9986 237.223 23.7973C236.454 24.7336 235.585 25.5713 234.791 26.483C233.947 27.4439 233.103 28.3802 232.358 29.3904C231.167 31.0412 230.571 32.9385 230.695 34.9589C230.918 38.704 232.904 41.3158 236.255 42.9666C236.702 43.1884 237.099 43.213 237.596 43.1144C239.656 42.6463 241.716 42.5724 243.777 43.0652C244.199 43.1637 244.546 43.1144 244.943 42.9173C248.493 41.2665 250.901 37.3242 250.727 33.4312C250.603 30.7209 249.883 28.1584 248.592 25.7684C246.656 22.2697 243.901 19.584 240.574 17.4158C240.376 17.2926 240.152 17.2186 239.879 17.0954ZM245.837 66.3985C247.128 60.7068 246.805 55.2369 245.142 49.7424C242.163 49.1757 239.234 49.1757 236.33 49.7178C236.23 49.9395 236.156 50.0381 236.131 50.1613C235.982 50.7033 235.833 51.2207 235.709 51.7628C234.617 56.3457 234.394 60.9532 235.411 65.5854C235.61 66.4971 235.61 66.4971 236.578 66.4971C239.333 66.4971 242.089 66.4971 244.869 66.4971C245.142 66.4724 245.44 66.4478 245.837 66.3985ZM274.06 30.647C274.06 29.9571 274.035 29.2426 274.06 28.5034C274.11 27.2222 273.688 26.0888 272.894 25.0785C272.099 24.093 271.28 23.132 270.486 22.1465C270.213 21.8015 269.915 21.6291 269.468 21.6291C267.358 21.6291 265.248 21.6291 263.138 21.6291C262.791 21.6291 262.493 21.7276 262.245 22.0479C261.401 23.1813 260.482 24.2655 259.663 25.4235C258.521 27.0497 258.67 28.8976 258.819 30.6963C259.837 30.918 273.216 30.8934 274.06 30.647ZM248.195 83.4488C249.014 83.7199 260.11 83.7199 260.904 83.3996C260.755 81.1574 260.582 78.9152 260.309 76.6484C256.411 76.6484 252.638 76.6484 248.89 76.6484C248.592 77.3876 248.096 82.6357 248.195 83.4488ZM236.777 47.9437C239.482 47.9437 242.014 47.9437 244.67 47.9437C244.323 46.7364 243.975 45.603 243.652 44.4942C241.617 43.9522 239.706 44.0015 237.745 44.5435C237.422 45.7016 237.099 46.7857 236.777 47.9437ZM268.649 20.1507C268.227 19.2144 266.713 17.4158 266.092 17.0708C265.72 17.5389 265.348 18.0317 264.975 18.5245C264.603 19.0419 264.131 19.4854 263.833 20.2C265.521 20.2739 267.06 20.3232 268.649 20.1507Z" fill="#0E3572"/>
<path d="M254.028 24.3388C253.681 24.3388 253.358 24.3634 253.011 24.3388C252.613 24.3141 252.39 24.0677 252.34 23.6981C252.291 23.3532 252.589 22.9836 253.011 22.959C253.755 22.9097 254.5 22.9097 255.22 22.959C255.642 22.9836 255.915 23.3532 255.89 23.6981C255.84 24.0924 255.592 24.3141 255.22 24.3388C254.847 24.3388 254.45 24.3388 254.028 24.3388Z" fill="#0E3572"/>
<path d="M217.564 67.9501C242.213 67.9501 266.812 67.9501 291.437 67.9501C291.734 68.64 291.635 69.3052 291.536 69.9705C290.99 73.0504 288.383 75.1694 285.132 75.1694C268.649 75.1694 252.192 75.1694 235.71 75.1694C231.763 75.1694 227.841 75.1694 223.894 75.1694C221.461 75.1694 219.624 74.0852 218.334 72.0402C217.688 71.0053 217.49 69.8719 217.465 68.6893C217.44 68.4429 217.515 68.2211 217.564 67.9501ZM254.55 70.5618C253.88 70.5618 253.185 70.5372 252.515 70.5618C251.944 70.5865 251.72 70.8082 251.72 71.2517C251.72 71.6952 251.968 71.9416 252.515 71.9416C253.855 71.9663 255.171 71.9663 256.511 71.9416C257.057 71.9416 257.355 71.6706 257.38 71.2764C257.405 70.8575 257.082 70.5618 256.511 70.5618C255.841 70.5372 255.195 70.5618 254.55 70.5618Z" fill="white"/>
<path d="M258.918 32.2972C263.933 32.2972 268.922 32.2972 273.887 32.2972C274.11 33.0611 274.135 65.3631 273.936 66.2994C273.216 66.5211 259.812 66.5457 258.943 66.324C258.72 65.6095 258.67 33.3321 258.918 32.2972ZM269.096 48.7316C269.096 52.5999 269.096 56.4929 269.096 60.3613C269.096 61.199 269.394 61.6179 269.915 61.5686C270.387 61.5193 270.61 61.1498 270.61 60.3613C270.61 52.5753 270.61 44.7893 270.61 37.0033C270.61 36.7816 270.635 36.5352 270.535 36.3874C270.362 36.1656 270.114 35.9192 269.865 35.8699C269.543 35.796 269.27 36.0424 269.195 36.3874C269.121 36.7077 269.096 37.0526 269.096 37.3976C269.096 41.1674 269.096 44.9618 269.096 48.7316ZM262.543 48.633C262.543 52.4768 262.543 56.3205 262.543 60.1642C262.543 60.4352 262.518 60.7309 262.592 61.0019C262.667 61.3469 262.915 61.6179 263.312 61.5933C263.709 61.5686 263.908 61.3222 263.957 60.928C263.982 60.6816 263.982 60.4352 263.982 60.1888C263.982 52.526 263.982 44.8879 263.982 37.2251C263.982 36.9787 263.982 36.7323 263.957 36.4859C263.908 36.1163 263.684 35.8699 263.287 35.8453C262.89 35.8453 262.642 36.0917 262.567 36.4613C262.518 36.7323 262.543 37.0033 262.543 37.299C262.543 41.0688 262.543 44.8632 262.543 48.633Z" fill="white"/>
<path d="M239.879 17.0947C240.152 17.2179 240.376 17.2918 240.574 17.415C243.901 19.5833 246.656 22.269 248.567 25.7431C249.883 28.1331 250.578 30.6956 250.702 33.4059C250.876 37.3235 248.493 41.2411 244.918 42.892C244.546 43.0645 244.174 43.1384 243.752 43.0398C241.691 42.547 239.631 42.6209 237.571 43.0891C237.074 43.2123 236.677 43.163 236.23 42.9413C232.904 41.3151 230.918 38.7033 230.695 34.9582C230.571 32.9377 231.166 31.0405 232.358 29.3897C233.103 28.3795 233.947 27.4432 234.791 26.4823C235.585 25.5706 236.454 24.7329 237.223 23.7966C238.713 21.9979 239.656 19.9529 239.755 17.5875C239.755 17.4397 239.805 17.3165 239.879 17.0947ZM233.45 34.7857C233.401 35.6973 233.624 36.7075 234.046 37.6685C234.12 37.8656 234.22 38.0627 234.319 38.2598C234.592 38.7033 235.039 38.8758 235.411 38.654C235.759 38.4816 235.858 38.0873 235.61 37.6192C234.195 34.7364 234.84 32.1986 236.925 29.8825C237.496 29.2665 238.117 28.6998 238.688 28.1085C238.862 27.936 239.06 27.7635 239.209 27.5664C239.432 27.2954 239.432 26.9997 239.209 26.7287C238.961 26.433 238.638 26.3837 238.291 26.5808C238.191 26.6301 238.067 26.704 237.993 26.8026C237 27.8128 235.957 28.7984 235.064 29.8825C233.947 31.2623 233.425 32.8638 233.45 34.7857Z" fill="white"/>
<path d="M245.837 66.398C245.439 66.4226 245.141 66.4719 244.844 66.4719C242.088 66.4719 239.333 66.4719 236.553 66.4719C235.585 66.4719 235.585 66.4719 235.386 65.5602C234.393 60.9281 234.592 56.3205 235.684 51.7376C235.808 51.1956 235.957 50.6535 236.106 50.1361C236.131 50.0129 236.205 49.9143 236.305 49.6926C239.209 49.1505 242.138 49.1505 245.117 49.7172C246.805 55.2364 247.127 60.7309 245.837 66.398ZM237.273 59.3758C237.322 59.3758 237.372 59.3758 237.397 59.3758C237.397 60.041 237.372 60.7309 237.397 61.3962C237.422 61.889 237.496 62.3818 237.571 62.8499C237.645 63.2195 237.918 63.3427 238.266 63.3181C238.613 63.3181 238.837 63.1209 238.911 62.776C238.936 62.6282 238.911 62.4803 238.911 62.3079C238.688 59.7207 238.737 57.1583 239.159 54.5958C239.209 54.3248 239.209 54.0537 239.209 53.7581C239.209 53.4131 239.01 53.1913 238.638 53.1421C238.29 53.0928 238.042 53.2406 237.918 53.5856C237.844 53.7827 237.794 54.0044 237.769 54.2016C237.595 55.9509 237.422 57.6757 237.273 59.3758Z" fill="white"/>
<path d="M274.06 30.6465C273.216 30.8929 259.837 30.9175 258.844 30.6958C258.67 28.8725 258.546 27.0492 259.688 25.423C260.507 24.2649 261.425 23.1808 262.269 22.0474C262.493 21.7517 262.79 21.6285 263.163 21.6285C265.273 21.6285 267.383 21.6285 269.493 21.6285C269.939 21.6285 270.237 21.8257 270.51 22.146C271.305 23.1315 272.124 24.0925 272.918 25.078C273.712 26.0636 274.134 27.197 274.085 28.5029C274.035 29.2174 274.06 29.9566 274.06 30.6465Z" fill="white"/>
<path d="M248.196 83.4483C248.096 82.6352 248.593 77.387 248.866 76.6478C252.614 76.6478 256.387 76.6478 260.284 76.6478C260.557 78.9146 260.756 81.1568 260.88 83.399C260.11 83.6947 249.015 83.7193 248.196 83.4483Z" fill="white"/>
<path d="M236.776 47.9431C237.124 46.7851 237.422 45.701 237.744 44.5676C239.681 44.0255 241.592 43.9516 243.652 44.5183C243.975 45.627 244.322 46.7604 244.67 47.9678C242.014 47.9431 239.457 47.9431 236.776 47.9431Z" fill="white"/>
<path d="M268.649 20.1501C267.06 20.3225 265.521 20.2733 263.833 20.1747C264.131 19.4602 264.603 19.0167 264.975 18.4992C265.322 18.0065 265.72 17.5383 266.092 17.0455C266.712 17.4151 268.227 19.2138 268.649 20.1501Z" fill="white"/>
<path d="M254.55 70.5619C255.195 70.5619 255.84 70.5372 256.511 70.5619C257.106 70.5865 257.404 70.8575 257.379 71.2764C257.354 71.6706 257.057 71.917 256.511 71.9416C255.17 71.9663 253.854 71.9663 252.514 71.9416C251.943 71.9416 251.72 71.6706 251.72 71.2518C251.72 70.8082 251.943 70.5865 252.514 70.5619C253.184 70.5372 253.854 70.5619 254.55 70.5619Z" fill="#0E3572"/>
<path d="M269.096 48.7316C269.096 44.9371 269.096 41.1673 269.096 37.3729C269.096 37.028 269.121 36.683 269.195 36.3627C269.269 36.0424 269.518 35.7714 269.865 35.8453C270.113 35.8946 270.386 36.1409 270.535 36.3627C270.635 36.5105 270.61 36.7816 270.61 36.9787C270.61 44.7647 270.61 52.5507 270.61 60.3367C270.61 61.1251 270.386 61.5193 269.915 61.544C269.418 61.5933 269.121 61.1744 269.096 60.3367C269.096 56.4929 269.096 52.6246 269.096 48.7316Z" fill="#3EAFD1"/>
<path d="M262.543 48.633C262.543 44.8632 262.543 41.0687 262.543 37.2989C262.543 37.0279 262.518 36.7322 262.568 36.4612C262.643 36.1162 262.891 35.8452 263.288 35.8452C263.685 35.8452 263.909 36.0916 263.958 36.4858C263.983 36.7322 263.983 36.9786 263.983 37.225C263.983 44.8878 263.983 52.526 263.983 60.1888C263.983 60.4352 263.983 60.6815 263.958 60.9279C263.909 61.2975 263.71 61.5686 263.313 61.5932C262.916 61.6178 262.667 61.3468 262.593 61.0019C262.543 60.7308 262.543 60.4598 262.543 60.1641C262.543 56.3204 262.543 52.4767 262.543 48.633Z" fill="#3EAFD1"/>
<path d="M233.45 34.7858C233.425 32.8639 233.947 31.2624 235.064 29.9072C235.957 28.8231 237 27.8375 237.993 26.8273C238.067 26.7288 238.191 26.6549 238.291 26.6056C238.638 26.4085 238.961 26.4577 239.209 26.7534C239.432 27.0244 239.432 27.3201 239.209 27.5911C239.06 27.7883 238.862 27.9607 238.688 28.1332C238.092 28.7245 237.471 29.2912 236.925 29.9072C234.84 32.1987 234.195 34.7365 235.61 37.6439C235.858 38.1367 235.759 38.5063 235.411 38.6788C235.039 38.8759 234.592 38.7281 234.319 38.2846C234.195 38.1121 234.12 37.8903 234.046 37.6932C233.624 36.7077 233.401 35.6974 233.45 34.7858Z" fill="#ED1C24"/>
<path d="M237.272 59.3757C237.446 57.6756 237.595 55.9509 237.769 54.2508C237.794 54.029 237.843 53.8319 237.918 53.6348C238.042 53.2898 238.29 53.1666 238.638 53.1913C239.01 53.2405 239.184 53.4623 239.209 53.8073C239.209 54.0783 239.209 54.3493 239.159 54.645C238.762 57.2075 238.687 59.7699 238.911 62.3571C238.936 62.5049 238.936 62.6774 238.911 62.8252C238.836 63.1702 238.638 63.3673 238.265 63.3673C237.918 63.3673 237.645 63.2441 237.57 62.8991C237.471 62.4063 237.421 61.9382 237.397 61.4454C237.372 60.7802 237.397 60.0903 237.397 59.425C237.347 59.3757 237.322 59.3757 237.272 59.3757Z" fill="#ED1C24"/>
</g>
<path d="M305 51.7148L490.5 52.2148" stroke="#58595B" stroke-dasharray="5 5"/>
<path d="M406 51.5L394.75 57.1292L394.75 45.8708L406 51.5Z" fill="#3EAFD1"/>
<path d="M577 51.7147L744.004 51.9416" stroke="#58595B" stroke-dasharray="5 5"/>
<path d="M668 51.5L656.75 57.1292L656.75 45.8708L668 51.5Z" fill="#0E3572"/>
<path d="M479.82 133V119.28H484.76C486.227 119.28 487.467 119.52 488.48 120C489.507 120.467 490.287 121.207 490.82 122.22C491.367 123.22 491.64 124.527 491.64 126.14C491.64 127.727 491.367 129.027 490.82 130.04C490.287 131.053 489.507 131.8 488.48 132.28C487.467 132.76 486.227 133 484.76 133H479.82ZM481.4 131.64H484.7C485.513 131.64 486.247 131.547 486.9 131.36C487.553 131.16 488.113 130.853 488.58 130.44C489.047 130.013 489.4 129.467 489.64 128.8C489.88 128.133 490 127.327 490 126.38V125.96C490 124.987 489.88 124.167 489.64 123.5C489.4 122.82 489.047 122.273 488.58 121.86C488.127 121.433 487.573 121.127 486.92 120.94C486.267 120.74 485.527 120.64 484.7 120.64H481.4V131.64ZM498.206 133.24C497.206 133.24 496.359 133.047 495.666 132.66C494.973 132.26 494.446 131.653 494.086 130.84C493.726 130.027 493.546 128.993 493.546 127.74C493.546 126.473 493.726 125.44 494.086 124.64C494.446 123.827 494.979 123.227 495.686 122.84C496.393 122.44 497.273 122.24 498.326 122.24C499.299 122.24 500.113 122.433 500.766 122.82C501.433 123.207 501.933 123.767 502.266 124.5C502.613 125.233 502.786 126.133 502.786 127.2V128.12H495.046C495.046 129.04 495.173 129.793 495.426 130.38C495.679 130.967 496.039 131.393 496.506 131.66C496.986 131.913 497.573 132.04 498.266 132.04C498.773 132.04 499.213 131.973 499.586 131.84C499.973 131.707 500.286 131.527 500.526 131.3C500.779 131.06 500.973 130.78 501.106 130.46C501.239 130.14 501.306 129.807 501.306 129.46H502.706C502.706 129.98 502.606 130.473 502.406 130.94C502.219 131.393 501.939 131.793 501.566 132.14C501.206 132.487 500.746 132.76 500.186 132.96C499.626 133.147 498.966 133.24 498.206 133.24ZM495.046 126.98H501.286C501.286 126.313 501.206 125.76 501.046 125.32C500.899 124.867 500.693 124.507 500.426 124.24C500.159 123.96 499.839 123.76 499.466 123.64C499.106 123.52 498.699 123.46 498.246 123.46C497.593 123.46 497.033 123.587 496.566 123.84C496.099 124.08 495.739 124.46 495.486 124.98C495.246 125.5 495.099 126.167 495.046 126.98ZM507.786 133L503.886 122.48H505.406L507.426 127.98C507.52 128.247 507.626 128.573 507.746 128.96C507.88 129.333 508.006 129.713 508.126 130.1C508.26 130.487 508.373 130.827 508.466 131.12H508.566C508.66 130.827 508.766 130.493 508.886 130.12C509.02 129.733 509.153 129.347 509.286 128.96C509.42 128.573 509.533 128.247 509.626 127.98L511.626 122.48H513.086L509.186 133H507.786ZM518.89 133.24C517.89 133.24 517.043 133.047 516.35 132.66C515.656 132.26 515.13 131.653 514.77 130.84C514.41 130.027 514.23 128.993 514.23 127.74C514.23 126.473 514.41 125.44 514.77 124.64C515.13 123.827 515.663 123.227 516.37 122.84C517.076 122.44 517.956 122.24 519.01 122.24C519.983 122.24 520.796 122.433 521.45 122.82C522.116 123.207 522.616 123.767 522.95 124.5C523.296 125.233 523.47 126.133 523.47 127.2V128.12H515.73C515.73 129.04 515.856 129.793 516.11 130.38C516.363 130.967 516.723 131.393 517.19 131.66C517.67 131.913 518.256 132.04 518.95 132.04C519.456 132.04 519.896 131.973 520.27 131.84C520.656 131.707 520.97 131.527 521.21 131.3C521.463 131.06 521.656 130.78 521.79 130.46C521.923 130.14 521.99 129.807 521.99 129.46H523.39C523.39 129.98 523.29 130.473 523.09 130.94C522.903 131.393 522.623 131.793 522.25 132.14C521.89 132.487 521.43 132.76 520.87 132.96C520.31 133.147 519.65 133.24 518.89 133.24ZM515.73 126.98H521.97C521.97 126.313 521.89 125.76 521.73 125.32C521.583 124.867 521.376 124.507 521.11 124.24C520.843 123.96 520.523 123.76 520.15 123.64C519.79 123.52 519.383 123.46 518.93 123.46C518.276 123.46 517.716 123.587 517.25 123.84C516.783 124.08 516.423 124.46 516.17 124.98C515.93 125.5 515.783 126.167 515.73 126.98ZM525.65 133V118.54H527.09V133H525.65ZM534.068 133.24C533.054 133.24 532.188 133.047 531.468 132.66C530.761 132.26 530.221 131.653 529.848 130.84C529.488 130.027 529.308 128.993 529.308 127.74C529.308 126.473 529.488 125.44 529.848 124.64C530.221 123.827 530.761 123.227 531.468 122.84C532.188 122.44 533.054 122.24 534.068 122.24C535.108 122.24 535.974 122.44 536.668 122.84C537.374 123.227 537.908 123.827 538.268 124.64C538.641 125.44 538.828 126.473 538.828 127.74C538.828 128.993 538.641 130.027 538.268 130.84C537.908 131.653 537.374 132.26 536.668 132.66C535.974 133.047 535.108 133.24 534.068 133.24ZM534.068 132.02C534.774 132.02 535.368 131.88 535.848 131.6C536.328 131.32 536.694 130.887 536.948 130.3C537.201 129.7 537.328 128.927 537.328 127.98V127.5C537.328 126.553 537.201 125.787 536.948 125.2C536.694 124.6 536.328 124.16 535.848 123.88C535.368 123.6 534.774 123.46 534.068 123.46C533.361 123.46 532.768 123.6 532.288 123.88C531.808 124.16 531.441 124.6 531.188 125.2C530.934 125.787 530.808 126.553 530.808 127.5V127.98C530.808 128.927 530.934 129.7 531.188 130.3C531.441 130.887 531.808 131.32 532.288 131.6C532.768 131.88 533.361 132.02 534.068 132.02ZM541.021 136.46V122.48H542.161L542.321 124.02H542.461C542.834 123.42 543.301 122.973 543.861 122.68C544.421 122.387 545.054 122.24 545.761 122.24C546.641 122.24 547.388 122.433 548.001 122.82C548.628 123.207 549.101 123.813 549.421 124.64C549.754 125.453 549.921 126.52 549.921 127.84C549.921 129.067 549.754 130.08 549.421 130.88C549.088 131.68 548.608 132.273 547.981 132.66C547.368 133.047 546.641 133.24 545.801 133.24C545.374 133.24 544.961 133.187 544.561 133.08C544.161 132.973 543.794 132.8 543.461 132.56C543.128 132.32 542.841 132.013 542.601 131.64H542.461V136.46H541.021ZM545.421 131.98C546.088 131.98 546.641 131.847 547.081 131.58C547.534 131.3 547.868 130.867 548.081 130.28C548.308 129.693 548.421 128.933 548.421 128V127.5C548.421 126.5 548.301 125.713 548.061 125.14C547.821 124.553 547.481 124.133 547.041 123.88C546.614 123.627 546.108 123.5 545.521 123.5C544.801 123.5 544.214 123.66 543.761 123.98C543.308 124.287 542.974 124.747 542.761 125.36C542.561 125.96 542.461 126.7 542.461 127.58V127.92C542.461 128.747 542.548 129.427 542.721 129.96C542.894 130.493 543.121 130.907 543.401 131.2C543.681 131.493 543.994 131.7 544.341 131.82C544.701 131.927 545.061 131.98 545.421 131.98ZM552.115 133V122.48H553.255L553.395 124.14H553.535C553.828 123.66 554.148 123.287 554.495 123.02C554.842 122.74 555.222 122.54 555.635 122.42C556.048 122.3 556.488 122.24 556.955 122.24C557.662 122.24 558.268 122.387 558.775 122.68C559.282 122.96 559.642 123.447 559.855 124.14H559.975C560.255 123.673 560.568 123.307 560.915 123.04C561.262 122.76 561.642 122.56 562.055 122.44C562.482 122.307 562.928 122.24 563.395 122.24C564.022 122.24 564.575 122.347 565.055 122.56C565.535 122.773 565.908 123.127 566.175 123.62C566.455 124.113 566.595 124.78 566.595 125.62V133H565.155V125.78C565.155 125.327 565.095 124.953 564.975 124.66C564.868 124.353 564.715 124.12 564.515 123.96C564.315 123.8 564.082 123.687 563.815 123.62C563.548 123.553 563.262 123.52 562.955 123.52C562.448 123.52 561.975 123.653 561.535 123.92C561.108 124.173 560.755 124.54 560.475 125.02C560.208 125.5 560.075 126.087 560.075 126.78V133H558.635V125.78C558.635 125.327 558.582 124.953 558.475 124.66C558.368 124.353 558.215 124.12 558.015 123.96C557.815 123.8 557.582 123.687 557.315 123.62C557.062 123.553 556.788 123.52 556.495 123.52C555.988 123.52 555.508 123.653 555.055 123.92C554.615 124.173 554.255 124.54 553.975 125.02C553.695 125.5 553.555 126.087 553.555 126.78V133H552.115ZM573.362 133.24C572.362 133.24 571.516 133.047 570.822 132.66C570.129 132.26 569.602 131.653 569.242 130.84C568.882 130.027 568.702 128.993 568.702 127.74C568.702 126.473 568.882 125.44 569.242 124.64C569.602 123.827 570.136 123.227 570.842 122.84C571.549 122.44 572.429 122.24 573.482 122.24C574.456 122.24 575.269 122.433 575.922 122.82C576.589 123.207 577.089 123.767 577.422 124.5C577.769 125.233 577.942 126.133 577.942 127.2V128.12H570.202C570.202 129.04 570.329 129.793 570.582 130.38C570.836 130.967 571.196 131.393 571.662 131.66C572.142 131.913 572.729 132.04 573.422 132.04C573.929 132.04 574.369 131.973 574.742 131.84C575.129 131.707 575.442 131.527 575.682 131.3C575.936 131.06 576.129 130.78 576.262 130.46C576.396 130.14 576.462 129.807 576.462 129.46H577.862C577.862 129.98 577.762 130.473 577.562 130.94C577.376 131.393 577.096 131.793 576.722 132.14C576.362 132.487 575.902 132.76 575.342 132.96C574.782 133.147 574.122 133.24 573.362 133.24ZM570.202 126.98H576.442C576.442 126.313 576.362 125.76 576.202 125.32C576.056 124.867 575.849 124.507 575.582 124.24C575.316 123.96 574.996 123.76 574.622 123.64C574.262 123.52 573.856 123.46 573.402 123.46C572.749 123.46 572.189 123.587 571.722 123.84C571.256 124.08 570.896 124.46 570.642 124.98C570.402 125.5 570.256 126.167 570.202 126.98ZM580.123 133V122.48H581.263L581.403 124.14H581.543C581.836 123.66 582.169 123.287 582.543 123.02C582.916 122.74 583.316 122.54 583.743 122.42C584.183 122.3 584.649 122.24 585.143 122.24C585.809 122.24 586.389 122.353 586.883 122.58C587.389 122.793 587.783 123.147 588.063 123.64C588.343 124.133 588.483 124.807 588.483 125.66V133H587.043V125.8C587.043 125.333 586.983 124.953 586.863 124.66C586.743 124.367 586.576 124.14 586.363 123.98C586.149 123.807 585.896 123.687 585.603 123.62C585.323 123.553 585.009 123.52 584.663 123.52C584.129 123.52 583.623 123.653 583.143 123.92C582.676 124.173 582.296 124.54 582.003 125.02C581.709 125.5 581.563 126.087 581.563 126.78V133H580.123ZM593.497 133.22C593.017 133.22 592.631 133.133 592.337 132.96C592.057 132.787 591.857 132.547 591.737 132.24C591.631 131.933 591.577 131.593 591.577 131.22V123.7H590.157V122.48H591.577L591.857 119.56H593.017V122.48H595.037V123.7H593.017V130.96C593.017 131.32 593.064 131.587 593.157 131.76C593.264 131.933 593.491 132.02 593.837 132.02H595.037V132.94C594.904 132.993 594.744 133.04 594.557 133.08C594.384 133.133 594.204 133.167 594.017 133.18C593.831 133.207 593.657 133.22 593.497 133.22Z" fill="#2D2D2D"/>
<g clip-path="url(#clip1_523:2886)">
<path d="M564.454 22.0005C568.053 22.075 571.032 24.4331 571.826 27.8338C572 28.5537 572 29.2984 572 30.043C572 42.3551 572 54.6672 572 67.004C572 67.5501 571.975 68.1211 572 68.6672C572.05 71.5714 569.766 75.1707 565.77 75.8906C565.174 75.9899 564.528 76.0395 563.933 76.0643C556.635 76.0643 549.362 76.0643 542.064 76.0643C541.691 76.0643 541.319 76.0643 540.823 76.0643C540.922 78.4225 541.195 80.6813 541.443 83.0395C541.84 83.0891 542.213 83.1388 542.56 83.1388C544.223 83.1388 545.911 83.1388 547.574 83.1388C547.848 83.1388 548.17 83.114 548.394 83.2133C548.592 83.3125 548.84 83.6104 548.84 83.809C548.84 84.0076 548.592 84.3055 548.394 84.4047C548.17 84.5289 547.848 84.504 547.574 84.504C538.216 84.504 528.833 84.504 519.475 84.504C519.326 84.504 519.152 84.504 519.004 84.4792C518.433 84.4296 518.209 84.2062 518.234 83.7594C518.259 83.2877 518.557 83.1388 518.979 83.114C519.227 83.114 519.475 83.114 519.723 83.114C521.262 83.114 522.826 83.114 524.365 83.114C524.738 83.114 525.11 83.0891 525.557 83.0643C525.904 80.7558 526.004 78.4969 526.252 76.114C525.78 76.0891 525.383 76.0395 525.011 76.0395C517.638 76.0395 510.241 76.0395 502.869 76.0395C501.131 76.0395 499.543 75.5679 498.177 74.5253C496.117 73.036 495 71.0005 495 68.4438C495 55.4367 495 42.4296 495 29.4225C495 25.8977 497.582 22.8196 501.057 22.1991C501.727 22.075 502.422 22.0005 503.092 22.0005H564.454ZM509.323 23.465H502.918C502.124 23.4899 501.305 23.5891 500.535 23.8374C498.053 24.6813 496.539 26.8161 496.415 29.4721C496.415 29.7203 496.415 29.9686 496.415 30.2168C496.415 41.6104 496.415 52.9792 496.415 64.3728C496.415 64.8196 496.465 65.2913 496.489 65.6884H509.372L509.323 23.465ZM510.812 65.7133L570.511 65.7381C570.535 65.465 570.585 65.1672 570.585 64.8941C570.585 53.1033 570.585 41.3125 570.585 29.5218C570.585 26.1707 567.904 23.5395 564.429 23.465H510.812V65.7133ZM496.564 67.3516C496.514 67.6246 496.44 67.8728 496.44 68.0962C496.44 69.2877 496.663 70.4544 497.309 71.4721C498.599 73.5076 500.436 74.6246 502.869 74.6246C506.816 74.6246 510.738 74.6246 514.684 74.6246C531.167 74.6246 547.624 74.6246 564.106 74.6246C567.358 74.6246 569.965 72.4898 570.511 69.387C570.635 68.7168 570.709 68.0466 570.411 67.3516C545.812 67.3516 521.213 67.3516 496.564 67.3516ZM527.195 82.965C528.014 83.2381 539.11 83.2381 539.904 82.9154C539.755 80.6565 539.582 78.3977 539.309 76.114C535.411 76.114 531.638 76.114 527.89 76.114C527.592 76.8586 527.096 82.1459 527.195 82.965Z" fill="#0E3572"/>
<path d="M533.55 70.0076C534.195 70.0076 534.84 69.9828 535.511 70.0076C536.106 70.0324 536.404 70.3055 536.379 70.7275C536.354 71.1246 536.057 71.3729 535.511 71.3977C534.17 71.4225 532.854 71.4225 531.514 71.3977C530.943 71.3977 530.72 71.1246 530.72 70.7026C530.72 70.2558 530.943 70.0324 531.514 70.0076C532.184 69.9828 532.854 70.0076 533.55 70.0076Z" fill="#ED1C24"/>
<rect x="499" y="44.0005" width="8" height="1.5" rx="0.75" fill="#3EAFD1"/>
<rect x="499" y="33.0005" width="8" height="1.5" rx="0.75" fill="#3EAFD1"/>
<rect x="499" y="55.0005" width="8" height="1.5" rx="0.75" fill="#3EAFD1"/>
<rect x="499" y="27.5005" width="8" height="1.5" rx="0.75" fill="#3EAFD1"/>
<rect x="499" y="49.5005" width="8" height="1.5" rx="0.75" fill="#3EAFD1"/>
<rect x="499" y="38.5005" width="8" height="1.5" rx="0.75" fill="#3EAFD1"/>
<rect x="499" y="60.5005" width="8" height="1.5" rx="0.75" fill="#3EAFD1"/>
<rect x="514" y="50.0005" width="15" height="1.5" rx="0.75" fill="#3EAFD1"/>
<rect x="514" y="43.0005" width="8" height="1.5" rx="0.75" fill="#3EAFD1"/>
<path d="M519.527 38.9591C519.628 38.9871 519.732 39.0005 519.835 39.0005C520.167 39.0005 520.481 38.8615 520.611 38.6333L523.941 32.798C524.111 32.4992 523.902 32.1607 523.473 32.0418C523.045 31.9231 522.559 32.0689 522.389 32.3677L519.059 38.203C518.889 38.5017 519.098 38.8402 519.527 38.9591Z" fill="#3EAFD1"/>
<path d="M526.427 38.9151C526.562 38.973 526.709 39.0005 526.855 39.0005C527.15 39.0005 527.437 38.8873 527.595 38.6847L529.885 35.7603C530.041 35.5608 530.038 35.314 529.877 35.1164L527.588 32.3067C527.344 32.0074 526.818 31.911 526.414 32.0915C526.009 32.2719 525.879 32.6608 526.123 32.9601L528.151 35.4495L526.115 38.0503C525.879 38.3528 526.018 38.7399 526.427 38.9151Z" fill="#3EAFD1"/>
<path d="M516.405 38.6847C516.563 38.8873 516.85 39.0005 517.145 39.0005C517.291 39.0005 517.438 38.973 517.573 38.9151C517.982 38.7399 518.121 38.3528 517.885 38.0503L515.849 35.4495L517.877 32.9601C518.121 32.6608 517.991 32.2719 517.586 32.0915C517.181 31.911 516.656 32.0074 516.412 32.3066L514.123 35.1164C513.962 35.314 513.959 35.5607 514.115 35.7603L516.405 38.6847Z" fill="#3EAFD1"/>
<rect x="514" y="57.0005" width="9" height="1.5" rx="0.75" fill="#3EAFD1"/>
<rect x="526" y="57.0005" width="19" height="1.5" rx="0.75" fill="#3EAFD1"/>
<rect x="514" y="53.5005" width="6" height="1.5" rx="0.75" fill="#ED1C24"/>
<rect x="523" y="53.5005" width="6" height="1.5" rx="0.75" fill="#3EAFD1"/>
<rect x="532" y="53.5005" width="20" height="1.5" rx="0.75" fill="#3EAFD1"/>
<rect x="514" y="46.5005" width="31" height="1.5" rx="0.75" fill="#3EAFD1"/>
<rect x="532" y="50.0005" width="8" height="1.5" rx="0.75" fill="#ED1C24"/>
<rect x="514" y="60.5005" width="18" height="1.5" rx="0.75" fill="#3EAFD1"/>
</g>
<path d="M780.186 133V120.66H775.326V119.28H786.666V120.66H781.766V133H780.186ZM790.837 133.24C789.837 133.24 788.99 133.047 788.297 132.66C787.604 132.26 787.077 131.653 786.717 130.84C786.357 130.027 786.177 128.993 786.177 127.74C786.177 126.473 786.357 125.44 786.717 124.64C787.077 123.827 787.61 123.227 788.317 122.84C789.024 122.44 789.904 122.24 790.957 122.24C791.93 122.24 792.744 122.433 793.397 122.82C794.064 123.207 794.564 123.767 794.897 124.5C795.244 125.233 795.417 126.133 795.417 127.2V128.12H787.677C787.677 129.04 787.804 129.793 788.057 130.38C788.31 130.967 788.67 131.393 789.137 131.66C789.617 131.913 790.204 132.04 790.897 132.04C791.404 132.04 791.844 131.973 792.217 131.84C792.604 131.707 792.917 131.527 793.157 131.3C793.41 131.06 793.604 130.78 793.737 130.46C793.87 130.14 793.937 129.807 793.937 129.46H795.337C795.337 129.98 795.237 130.473 795.037 130.94C794.85 131.393 794.57 131.793 794.197 132.14C793.837 132.487 793.377 132.76 792.817 132.96C792.257 133.147 791.597 133.24 790.837 133.24ZM787.677 126.98H793.917C793.917 126.313 793.837 125.76 793.677 125.32C793.53 124.867 793.324 124.507 793.057 124.24C792.79 123.96 792.47 123.76 792.097 123.64C791.737 123.52 791.33 123.46 790.877 123.46C790.224 123.46 789.664 123.587 789.197 123.84C788.73 124.08 788.37 124.46 788.117 124.98C787.877 125.5 787.73 126.167 787.677 126.98ZM801.097 133.24C800.404 133.24 799.791 133.167 799.257 133.02C798.724 132.887 798.277 132.687 797.917 132.42C797.571 132.14 797.304 131.807 797.117 131.42C796.944 131.033 796.857 130.587 796.857 130.08C796.857 130.027 796.857 129.973 796.857 129.92C796.857 129.853 796.864 129.793 796.877 129.74H798.297C798.284 129.807 798.277 129.867 798.277 129.92C798.277 129.96 798.277 130 798.277 130.04C798.291 130.56 798.417 130.967 798.657 131.26C798.897 131.54 799.237 131.74 799.677 131.86C800.117 131.98 800.624 132.04 801.197 132.04C801.691 132.04 802.131 131.973 802.517 131.84C802.917 131.693 803.231 131.487 803.457 131.22C803.697 130.953 803.817 130.627 803.817 130.24C803.817 129.747 803.664 129.373 803.357 129.12C803.064 128.867 802.677 128.673 802.197 128.54C801.717 128.393 801.217 128.24 800.697 128.08C800.271 127.96 799.851 127.833 799.437 127.7C799.024 127.553 798.644 127.373 798.297 127.16C797.964 126.947 797.697 126.673 797.497 126.34C797.297 126.007 797.197 125.587 797.197 125.08C797.197 124.64 797.284 124.247 797.457 123.9C797.644 123.553 797.904 123.26 798.237 123.02C798.584 122.767 799.004 122.573 799.497 122.44C799.991 122.307 800.551 122.24 801.177 122.24C801.871 122.24 802.464 122.32 802.957 122.48C803.451 122.64 803.851 122.86 804.157 123.14C804.464 123.407 804.691 123.713 804.837 124.06C804.984 124.393 805.057 124.747 805.057 125.12C805.057 125.173 805.051 125.233 805.037 125.3C805.037 125.367 805.037 125.427 805.037 125.48H803.617V125.22C803.617 124.94 803.544 124.667 803.397 124.4C803.264 124.133 803.017 123.907 802.657 123.72C802.311 123.533 801.791 123.44 801.097 123.44C800.684 123.44 800.324 123.48 800.017 123.56C799.724 123.627 799.471 123.727 799.257 123.86C799.057 123.993 798.904 124.16 798.797 124.36C798.704 124.547 798.657 124.767 798.657 125.02C798.657 125.407 798.777 125.707 799.017 125.92C799.271 126.12 799.597 126.287 799.997 126.42C800.397 126.54 800.824 126.673 801.277 126.82C801.731 126.953 802.191 127.093 802.657 127.24C803.137 127.387 803.577 127.567 803.977 127.78C804.377 127.993 804.697 128.28 804.937 128.64C805.177 128.987 805.297 129.447 805.297 130.02C805.297 130.553 805.191 131.027 804.977 131.44C804.764 131.84 804.471 132.173 804.097 132.44C803.724 132.707 803.277 132.907 802.757 133.04C802.251 133.173 801.697 133.24 801.097 133.24ZM809.82 133.22C809.34 133.22 808.953 133.133 808.66 132.96C808.38 132.787 808.18 132.547 808.06 132.24C807.953 131.933 807.9 131.593 807.9 131.22V123.7H806.48V122.48H807.9L808.18 119.56H809.34V122.48H811.36V123.7H809.34V130.96C809.34 131.32 809.386 131.587 809.48 131.76C809.586 131.933 809.813 132.02 810.16 132.02H811.36V132.94C811.226 132.993 811.066 133.04 810.88 133.08C810.706 133.133 810.526 133.167 810.34 133.18C810.153 133.207 809.98 133.22 809.82 133.22ZM813.281 120.32V118.54H814.721V120.32H813.281ZM813.281 133V122.48H814.721V133H813.281ZM817.539 133V122.48H818.679L818.819 124.14H818.959C819.252 123.66 819.585 123.287 819.959 123.02C820.332 122.74 820.732 122.54 821.159 122.42C821.599 122.3 822.065 122.24 822.559 122.24C823.225 122.24 823.805 122.353 824.299 122.58C824.805 122.793 825.199 123.147 825.479 123.64C825.759 124.133 825.899 124.807 825.899 125.66V133H824.459V125.8C824.459 125.333 824.399 124.953 824.279 124.66C824.159 124.367 823.992 124.14 823.779 123.98C823.565 123.807 823.312 123.687 823.019 123.62C822.739 123.553 822.425 123.52 822.079 123.52C821.545 123.52 821.039 123.653 820.559 123.92C820.092 124.173 819.712 124.54 819.419 125.02C819.125 125.5 818.979 126.087 818.979 126.78V133H817.539ZM830.393 136.64C829.887 136.64 829.413 136.527 828.973 136.3C828.547 136.087 828.207 135.78 827.953 135.38C827.7 134.993 827.573 134.54 827.573 134.02C827.573 133.433 827.727 132.933 828.033 132.52C828.353 132.107 828.753 131.8 829.233 131.6C828.887 131.453 828.62 131.233 828.433 130.94C828.247 130.647 828.153 130.327 828.153 129.98C828.153 129.527 828.32 129.14 828.653 128.82C828.987 128.487 829.393 128.267 829.873 128.16C829.433 127.867 829.08 127.493 828.813 127.04C828.56 126.587 828.433 126.1 828.433 125.58C828.433 124.927 828.587 124.353 828.893 123.86C829.2 123.353 829.66 122.96 830.273 122.68C830.9 122.387 831.68 122.24 832.613 122.24C833.053 122.24 833.46 122.273 833.833 122.34C834.22 122.407 834.567 122.507 834.873 122.64C835.34 122.467 835.7 122.22 835.953 121.9C836.207 121.567 836.373 121.2 836.453 120.8H837.893C837.88 121.173 837.787 121.533 837.613 121.88C837.44 122.227 837.2 122.52 836.893 122.76C836.587 123 836.22 123.153 835.793 123.22C836.14 123.54 836.393 123.9 836.553 124.3C836.713 124.7 836.793 125.127 836.793 125.58C836.793 126.207 836.64 126.773 836.333 127.28C836.04 127.773 835.587 128.167 834.973 128.46C834.373 128.753 833.6 128.9 832.653 128.9H830.993C830.593 128.9 830.267 128.98 830.013 129.14C829.76 129.287 829.633 129.54 829.633 129.9C829.633 130.207 829.767 130.447 830.033 130.62C830.3 130.793 830.633 130.88 831.033 130.88H835.153C835.927 130.88 836.553 131.14 837.033 131.66C837.527 132.18 837.773 132.833 837.773 133.62C837.773 134.18 837.633 134.687 837.353 135.14C837.073 135.607 836.687 135.973 836.193 136.24C835.713 136.507 835.147 136.64 834.493 136.64H830.393ZM830.713 135.5H834.453C834.8 135.5 835.113 135.427 835.393 135.28C835.673 135.133 835.893 134.927 836.053 134.66C836.227 134.407 836.313 134.133 836.313 133.84C836.313 133.333 836.167 132.927 835.873 132.62C835.58 132.313 835.213 132.16 834.773 132.16H830.713C830.26 132.16 829.867 132.327 829.533 132.66C829.2 132.98 829.033 133.373 829.033 133.84C829.033 134.347 829.193 134.747 829.513 135.04C829.847 135.347 830.247 135.5 830.713 135.5ZM832.613 127.76C833.547 127.76 834.233 127.567 834.673 127.18C835.127 126.78 835.353 126.247 835.353 125.58C835.353 124.9 835.127 124.367 834.673 123.98C834.233 123.58 833.547 123.38 832.613 123.38C831.707 123.38 831.027 123.58 830.573 123.98C830.12 124.367 829.893 124.9 829.893 125.58C829.893 125.993 829.993 126.367 830.193 126.7C830.393 127.033 830.693 127.293 831.093 127.48C831.507 127.667 832.013 127.76 832.613 127.76ZM760.332 155.24C759.345 155.24 758.472 155.087 757.712 154.78C756.965 154.46 756.378 154.007 755.952 153.42C755.525 152.833 755.312 152.133 755.312 151.32C755.312 150.413 755.532 149.68 755.972 149.12C756.412 148.56 756.965 148.173 757.632 147.96V147.88C757.058 147.587 756.578 147.2 756.192 146.72C755.805 146.227 755.612 145.587 755.612 144.8C755.612 143.987 755.812 143.3 756.212 142.74C756.625 142.18 757.198 141.76 757.932 141.48C758.678 141.187 759.545 141.04 760.532 141.04C761.505 141.04 762.358 141.193 763.092 141.5C763.838 141.807 764.425 142.247 764.852 142.82C765.278 143.38 765.492 144.04 765.492 144.8V145.08H764.052V144.9C764.025 144.287 763.852 143.793 763.532 143.42C763.225 143.033 762.805 142.753 762.272 142.58C761.752 142.393 761.158 142.3 760.492 142.3C760.078 142.3 759.665 142.347 759.252 142.44C758.852 142.52 758.485 142.66 758.152 142.86C757.832 143.047 757.572 143.307 757.372 143.64C757.185 143.96 757.092 144.353 757.092 144.82C757.092 145.407 757.232 145.9 757.512 146.3C757.805 146.687 758.185 146.973 758.652 147.16C759.132 147.333 759.638 147.42 760.172 147.42H761.372V148.62H760.212C759.638 148.62 759.092 148.693 758.572 148.84C758.052 148.987 757.625 149.253 757.292 149.64C756.972 150.013 756.812 150.547 756.812 151.24C756.812 151.893 756.965 152.42 757.272 152.82C757.592 153.22 758.032 153.513 758.592 153.7C759.152 153.887 759.792 153.98 760.512 153.98C761.312 153.98 761.972 153.88 762.492 153.68C763.012 153.48 763.398 153.18 763.652 152.78C763.918 152.367 764.052 151.853 764.052 151.24V147.42H767.132V148.66H765.492V151.18C765.492 152.073 765.298 152.82 764.912 153.42C764.525 154.02 763.945 154.473 763.172 154.78C762.412 155.087 761.465 155.24 760.332 155.24ZM773.945 155V141.28H783.605V142.64H775.525V147.38H782.885V148.74H775.525V155H773.945ZM789.401 155.24C788.401 155.24 787.555 155.047 786.861 154.66C786.168 154.26 785.641 153.653 785.281 152.84C784.921 152.027 784.741 150.993 784.741 149.74C784.741 148.473 784.921 147.44 785.281 146.64C785.641 145.827 786.175 145.227 786.881 144.84C787.588 144.44 788.468 144.24 789.521 144.24C790.495 144.24 791.308 144.433 791.961 144.82C792.628 145.207 793.128 145.767 793.461 146.5C793.808 147.233 793.981 148.133 793.981 149.2V150.12H786.241C786.241 151.04 786.368 151.793 786.621 152.38C786.875 152.967 787.235 153.393 787.701 153.66C788.181 153.913 788.768 154.04 789.461 154.04C789.968 154.04 790.408 153.973 790.781 153.84C791.168 153.707 791.481 153.527 791.721 153.3C791.975 153.06 792.168 152.78 792.301 152.46C792.435 152.14 792.501 151.807 792.501 151.46H793.901C793.901 151.98 793.801 152.473 793.601 152.94C793.415 153.393 793.135 153.793 792.761 154.14C792.401 154.487 791.941 154.76 791.381 154.96C790.821 155.147 790.161 155.24 789.401 155.24ZM786.241 148.98H792.481C792.481 148.313 792.401 147.76 792.241 147.32C792.095 146.867 791.888 146.507 791.621 146.24C791.355 145.96 791.035 145.76 790.661 145.64C790.301 145.52 789.895 145.46 789.441 145.46C788.788 145.46 788.228 145.587 787.761 145.84C787.295 146.08 786.935 146.46 786.681 146.98C786.441 147.5 786.295 148.167 786.241 148.98ZM800.222 155.24C799.222 155.24 798.375 155.047 797.682 154.66C796.988 154.26 796.462 153.653 796.102 152.84C795.742 152.027 795.562 150.993 795.562 149.74C795.562 148.473 795.742 147.44 796.102 146.64C796.462 145.827 796.995 145.227 797.702 144.84C798.408 144.44 799.288 144.24 800.342 144.24C801.315 144.24 802.128 144.433 802.782 144.82C803.448 145.207 803.948 145.767 804.282 146.5C804.628 147.233 804.802 148.133 804.802 149.2V150.12H797.062C797.062 151.04 797.188 151.793 797.442 152.38C797.695 152.967 798.055 153.393 798.522 153.66C799.002 153.913 799.588 154.04 800.282 154.04C800.788 154.04 801.228 153.973 801.602 153.84C801.988 153.707 802.302 153.527 802.542 153.3C802.795 153.06 802.988 152.78 803.122 152.46C803.255 152.14 803.322 151.807 803.322 151.46H804.722C804.722 151.98 804.622 152.473 804.422 152.94C804.235 153.393 803.955 153.793 803.582 154.14C803.222 154.487 802.762 154.76 802.202 154.96C801.642 155.147 800.982 155.24 800.222 155.24ZM797.062 148.98H803.302C803.302 148.313 803.222 147.76 803.062 147.32C802.915 146.867 802.708 146.507 802.442 146.24C802.175 145.96 801.855 145.76 801.482 145.64C801.122 145.52 800.715 145.46 800.262 145.46C799.608 145.46 799.048 145.587 798.582 145.84C798.115 146.08 797.755 146.46 797.502 146.98C797.262 147.5 797.115 148.167 797.062 148.98ZM810.542 155.24C809.675 155.24 808.929 155.047 808.302 154.66C807.675 154.273 807.195 153.673 806.862 152.86C806.542 152.033 806.382 150.96 806.382 149.64C806.382 148.4 806.549 147.387 806.882 146.6C807.215 145.8 807.689 145.207 808.302 144.82C808.929 144.433 809.662 144.24 810.502 144.24C810.955 144.24 811.382 144.293 811.782 144.4C812.182 144.507 812.542 144.68 812.862 144.92C813.182 145.147 813.462 145.453 813.702 145.84H813.822V140.54H815.262V155H814.142L813.982 153.46H813.842C813.469 154.06 812.989 154.507 812.402 154.8C811.829 155.093 811.209 155.24 810.542 155.24ZM810.782 153.98C811.502 153.98 812.082 153.82 812.522 153.5C812.975 153.18 813.302 152.72 813.502 152.12C813.715 151.52 813.822 150.787 813.822 149.92V149.56C813.822 148.733 813.735 148.053 813.562 147.52C813.402 146.987 813.175 146.573 812.882 146.28C812.602 145.987 812.289 145.787 811.942 145.68C811.595 145.56 811.242 145.5 810.882 145.5C810.215 145.5 809.655 145.64 809.202 145.92C808.762 146.187 808.429 146.613 808.202 147.2C807.989 147.787 807.882 148.553 807.882 149.5V150C807.882 150.987 808.002 151.773 808.242 152.36C808.482 152.933 808.815 153.347 809.242 153.6C809.682 153.853 810.195 153.98 810.782 153.98ZM822.816 155.24C822.096 155.24 821.456 155.093 820.896 154.8C820.349 154.507 819.889 154.06 819.516 153.46H819.376L819.216 155H818.076V140.54H819.516V145.84H819.656C819.896 145.453 820.182 145.147 820.516 144.92C820.849 144.68 821.216 144.507 821.616 144.4C822.016 144.293 822.429 144.24 822.856 144.24C823.696 144.24 824.422 144.433 825.036 144.82C825.662 145.207 826.142 145.8 826.476 146.6C826.809 147.387 826.976 148.4 826.976 149.64C826.976 150.96 826.809 152.033 826.476 152.86C826.156 153.673 825.682 154.273 825.056 154.66C824.442 155.047 823.696 155.24 822.816 155.24ZM822.576 153.98C823.162 153.98 823.669 153.853 824.096 153.6C824.536 153.347 824.876 152.933 825.116 152.36C825.356 151.773 825.476 150.987 825.476 150V149.5C825.476 148.553 825.362 147.787 825.136 147.2C824.922 146.613 824.589 146.187 824.136 145.92C823.696 145.64 823.142 145.5 822.476 145.5C822.116 145.5 821.756 145.56 821.396 145.68C821.049 145.787 820.736 145.987 820.456 146.28C820.176 146.573 819.949 146.987 819.776 147.52C819.602 148.053 819.516 148.733 819.516 149.56V149.92C819.516 150.787 819.616 151.52 819.816 152.12C820.029 152.72 820.362 153.18 820.816 153.5C821.269 153.82 821.856 153.98 822.576 153.98ZM831.79 155.24C831.376 155.24 830.97 155.187 830.57 155.08C830.17 154.987 829.81 154.833 829.49 154.62C829.183 154.393 828.936 154.093 828.75 153.72C828.563 153.347 828.47 152.887 828.47 152.34C828.47 151.62 828.643 151.033 828.99 150.58C829.35 150.113 829.85 149.753 830.49 149.5C831.13 149.233 831.883 149.053 832.75 148.96C833.63 148.867 834.583 148.82 835.61 148.82V147.48C835.61 147.053 835.53 146.693 835.37 146.4C835.223 146.093 834.956 145.86 834.57 145.7C834.196 145.527 833.663 145.44 832.97 145.44C832.303 145.44 831.776 145.527 831.39 145.7C831.003 145.873 830.73 146.1 830.57 146.38C830.423 146.647 830.35 146.947 830.35 147.28V147.6H828.97C828.956 147.533 828.95 147.467 828.95 147.4C828.95 147.333 828.95 147.253 828.95 147.16C828.95 146.493 829.123 145.947 829.47 145.52C829.816 145.093 830.31 144.773 830.95 144.56C831.59 144.347 832.323 144.24 833.15 144.24C833.99 144.24 834.696 144.367 835.27 144.62C835.843 144.86 836.283 145.207 836.59 145.66C836.896 146.113 837.05 146.66 837.05 147.3V153.34C837.05 153.593 837.096 153.773 837.19 153.88C837.296 153.973 837.436 154.02 837.61 154.02H838.45V154.94C838.25 155.02 838.036 155.087 837.81 155.14C837.596 155.193 837.37 155.22 837.13 155.22C836.783 155.22 836.503 155.147 836.29 155C836.09 154.853 835.943 154.647 835.85 154.38C835.77 154.113 835.716 153.82 835.69 153.5H835.55C835.296 153.86 834.97 154.173 834.57 154.44C834.183 154.693 833.756 154.887 833.29 155.02C832.823 155.167 832.323 155.24 831.79 155.24ZM832.09 154.02C832.53 154.02 832.956 153.947 833.37 153.8C833.783 153.653 834.156 153.453 834.49 153.2C834.823 152.933 835.09 152.62 835.29 152.26C835.503 151.9 835.61 151.5 835.61 151.06V149.98C834.37 149.98 833.33 150.047 832.49 150.18C831.663 150.313 831.036 150.547 830.61 150.88C830.196 151.213 829.99 151.68 829.99 152.28C829.99 152.68 830.076 153.013 830.25 153.28C830.436 153.533 830.69 153.72 831.01 153.84C831.33 153.96 831.69 154.02 832.09 154.02ZM843.791 155.24C842.817 155.24 841.991 155.04 841.311 154.64C840.644 154.24 840.137 153.633 839.791 152.82C839.444 152.007 839.271 150.98 839.271 149.74C839.271 148.513 839.444 147.493 839.791 146.68C840.137 145.867 840.651 145.26 841.331 144.86C842.024 144.447 842.871 144.24 843.871 144.24C844.604 144.24 845.224 144.34 845.731 144.54C846.251 144.727 846.671 145 846.991 145.36C847.324 145.72 847.564 146.153 847.711 146.66C847.857 147.167 847.931 147.733 847.931 148.36H846.511C846.511 147.68 846.417 147.133 846.231 146.72C846.057 146.293 845.771 145.98 845.371 145.78C844.984 145.567 844.471 145.46 843.831 145.46C843.231 145.46 842.697 145.593 842.231 145.86C841.777 146.127 841.417 146.553 841.151 147.14C840.897 147.713 840.771 148.5 840.771 149.5V149.98C840.771 150.927 840.891 151.7 841.131 152.3C841.371 152.887 841.717 153.32 842.171 153.6C842.637 153.88 843.191 154.02 843.831 154.02C844.497 154.02 845.024 153.907 845.411 153.68C845.811 153.44 846.097 153.107 846.271 152.68C846.444 152.24 846.531 151.72 846.531 151.12H847.931C847.931 151.68 847.857 152.213 847.711 152.72C847.564 153.213 847.324 153.647 846.991 154.02C846.671 154.393 846.244 154.693 845.711 154.92C845.191 155.133 844.551 155.24 843.791 155.24ZM850.048 155V140.54H851.488V149.86L856.268 144.48H858.008L854.368 148.58L858.208 155H856.528L853.428 149.64L851.488 151.62V155H850.048Z" fill="#2D2D2D"/>
<path d="M768.718 25.8971V19.3246H789.668L789.722 11.3951H799.527" stroke="#0E3572" stroke-dasharray="2 2"/>
<path d="M767.664 72.3864V76.905L786.971 76.4942V81.353H802.581" stroke="#0E3572" stroke-dasharray="2 2"/>
<path d="M839.723 28.1742L839.835 28.5689L840.229 28.6866L845.869 30.3743C845.911 30.3977 845.947 30.4317 845.973 30.4733C846.004 30.5234 846.02 30.5821 846.017 30.6415L846.016 30.6592V30.6769V36.4841C846.016 36.5457 845.996 36.6053 845.959 36.6545C845.923 36.7032 845.873 36.739 845.816 36.7572C845.815 36.7575 845.815 36.7578 845.814 36.7581L840.094 38.4593L839.703 38.5755L839.588 38.9667C839.205 40.27 838.685 41.5284 838.035 42.7206L837.841 43.076L838.032 43.4329L840.852 48.712C840.852 48.7122 840.852 48.7124 840.852 48.7126C840.881 48.7676 840.892 48.8306 840.882 48.8922C840.873 48.9541 840.844 49.0111 840.8 49.0546L840.797 49.0578L836.735 53.1296L836.732 53.1327C836.688 53.1769 836.632 53.2055 836.571 53.2148C836.511 53.224 836.449 53.2136 836.395 53.1848C836.395 53.1848 836.394 53.1847 836.394 53.1846L831.11 50.3573L830.753 50.1664L830.398 50.3598C829.213 51.0043 827.964 51.5207 826.67 51.9004L826.278 52.0155L826.162 52.4077L824.465 58.1576C824.465 58.1585 824.464 58.1595 824.464 58.1605C824.445 58.2184 824.409 58.2687 824.361 58.3046C824.312 58.3408 824.254 58.3604 824.194 58.361H818.454C818.394 58.3604 818.335 58.3408 818.286 58.3046C818.238 58.2687 818.202 58.2183 818.183 58.1603C818.183 58.1594 818.183 58.1585 818.182 58.1576L816.485 52.4242L816.369 52.0307L815.975 51.9166C814.67 51.5389 813.409 51.0224 812.214 50.3759L811.859 50.1839L811.503 50.3744L806.253 53.1846C806.253 53.1846 806.253 53.1846 806.253 53.1846C806.199 53.2135 806.137 53.224 806.076 53.2148C806.016 53.2055 805.959 53.1769 805.916 53.1327L805.913 53.1296L801.851 49.0578L801.847 49.0547C801.803 49.0111 801.774 48.9541 801.765 48.8922C801.756 48.8303 801.766 48.7671 801.796 48.712L801.798 48.7074L804.585 43.358L804.773 42.9972L804.573 42.6428C803.891 41.4334 803.342 40.1526 802.938 38.8235L802.821 38.4394L802.437 38.3237L796.783 36.6218C796.782 36.6216 796.781 36.6213 796.781 36.6211C796.723 36.603 796.673 36.5671 796.637 36.5182C796.601 36.4691 796.581 36.4094 796.58 36.3478V30.594C796.581 30.5324 796.601 30.4728 796.637 30.4236C796.673 30.3746 796.724 30.3387 796.781 30.3205C796.782 30.3204 796.782 30.3202 796.783 30.3201L802.404 28.6178L802.791 28.5006L802.906 28.1128C803.306 26.7612 803.854 25.4582 804.541 24.2278L804.741 23.8687L804.546 23.5066L801.795 18.3986C801.766 18.3439 801.756 18.2813 801.765 18.22C801.774 18.1586 801.803 18.1022 801.846 18.0588L805.974 14.0233L805.974 14.0234L805.984 14.0135C806.027 13.9694 806.084 13.9408 806.144 13.9315C806.204 13.9223 806.265 13.9325 806.319 13.9608L811.415 16.7191L811.778 16.9156L812.138 16.7141C813.371 16.0247 814.676 15.475 816.029 15.0752L816.418 14.9605L816.535 14.5729L818.233 8.95463C818.233 8.9542 818.234 8.95377 818.234 8.95334C818.252 8.89475 818.288 8.84379 818.337 8.8076C818.386 8.77141 818.444 8.75177 818.505 8.75124H824.247H824.255L824.264 8.75105C824.324 8.7497 824.383 8.76752 824.433 8.80221C824.48 8.83495 824.516 8.8812 824.537 8.93511L826.231 14.5553L826.348 14.9416L826.734 15.0573C828.077 15.4593 829.371 16.0089 830.593 16.6962L830.951 16.898L831.314 16.7036L836.496 13.9276C836.497 13.9275 836.497 13.9273 836.497 13.9272C836.551 13.8986 836.613 13.8882 836.673 13.8974C836.734 13.9067 836.79 13.9353 836.833 13.9795L836.836 13.9815L840.897 18.0703L840.902 18.0746C840.946 18.1182 840.975 18.1751 840.984 18.237C840.994 18.2987 840.983 18.3617 840.954 18.4167C840.954 18.4169 840.954 18.4171 840.954 18.4173L838.167 23.6459L837.978 24.0006L838.169 24.3544C838.823 25.5677 839.344 26.8484 839.723 28.1742ZM815.764 41.9702C817.425 43.0824 819.377 43.6762 821.375 43.6762C824.053 43.6762 826.622 42.6096 828.515 40.7115C830.409 38.8134 831.472 36.2395 831.472 33.5561C831.472 31.5549 830.88 29.5986 829.771 27.9344C828.662 26.2701 827.085 24.9728 825.239 24.2066C823.394 23.4404 821.363 23.2399 819.404 23.6305C817.445 24.0211 815.646 24.9853 814.234 26.4007C812.822 27.8162 811.86 29.6193 811.471 31.5821C811.081 33.5449 811.281 35.5793 812.045 37.4283C812.809 39.2773 814.103 40.858 815.764 41.9702Z" fill="white" stroke="#0E3572" stroke-width="1.5"/>
<circle cx="821.5" cy="33.2147" r="11.5" fill="white"/>
<path d="M781.619 47.2715L781.693 47.535L781.954 47.6149L786.144 48.8958C786.185 48.918 786.222 48.9519 786.248 48.9955C786.279 49.0458 786.295 49.1057 786.292 49.1671L786.291 49.1787V49.1902L786.291 53.5919C786.291 53.5921 786.291 53.5924 786.291 53.5926C786.291 53.6565 786.271 53.7174 786.235 53.7665L786.64 54.0597L786.235 53.7665C786.2 53.815 786.152 53.849 786.1 53.8659C786.1 53.8661 786.099 53.8663 786.098 53.8665L781.854 55.1563L781.594 55.2353L781.519 55.4965C781.233 56.4897 780.845 57.4486 780.361 58.3569L780.236 58.5899L780.359 58.8239L782.451 62.8259C782.451 62.8262 782.451 62.8264 782.451 62.8266C782.48 62.8822 782.491 62.9468 782.481 63.0105C782.472 63.0743 782.443 63.1315 782.401 63.1742L782.398 63.1763L779.385 66.263L779.383 66.2651C779.341 66.3082 779.289 66.3348 779.234 66.3433C779.18 66.3518 779.124 66.3424 779.074 66.3153C779.074 66.3152 779.074 66.3152 779.073 66.3151L775.153 64.1718L774.911 64.0395L774.67 64.1735C773.788 64.6639 772.857 65.0568 771.894 65.3455L771.633 65.4238L771.558 65.6857L770.298 70.0453C770.298 70.046 770.298 70.0467 770.298 70.0474C770.279 70.1071 770.243 70.1572 770.198 70.1918C770.152 70.2267 770.098 70.2446 770.044 70.245C770.044 70.245 770.043 70.245 770.043 70.245H765.786C765.786 70.245 765.785 70.245 765.785 70.245C765.731 70.2446 765.677 70.2267 765.631 70.1918C765.586 70.1571 765.55 70.107 765.531 70.0472C765.531 70.0466 765.531 70.046 765.531 70.0453L764.271 65.6982L764.195 65.4355L763.933 65.3579C762.962 65.0706 762.023 64.6777 761.133 64.1858L760.892 64.0528L760.651 64.1847L756.756 66.3151C756.755 66.3152 756.755 66.3154 756.755 66.3155C756.705 66.3424 756.649 66.3518 756.595 66.3433C756.54 66.3348 756.488 66.3082 756.446 66.2651L756.444 66.263L753.431 63.1763L753.429 63.1742C753.386 63.1315 753.357 63.0743 753.348 63.0105C753.338 62.9466 753.349 62.8817 753.378 62.8259L753.38 62.8229L755.448 58.7677L755.568 58.5312L755.44 58.2988C754.931 57.3774 754.522 56.4016 754.22 55.3887L754.144 55.1322L753.888 55.0535L749.693 53.7632C749.693 53.763 749.692 53.7629 749.692 53.7627C749.639 53.7459 749.592 53.7119 749.556 53.6632C749.521 53.6141 749.5 53.5533 749.5 53.4895V49.1271C749.5 49.0633 749.521 49.0024 749.556 48.9533C749.592 48.9046 749.64 48.8705 749.692 48.8537C749.692 48.8536 749.693 48.8535 749.693 48.8533L753.864 47.5628L754.121 47.4831L754.196 47.2243C754.495 46.1942 754.904 45.2014 755.416 44.264L755.544 44.0285L755.419 43.7911L753.378 39.9198C753.378 39.9194 753.378 39.919 753.378 39.9186C753.349 39.8631 753.338 39.7987 753.348 39.7352C753.357 39.6718 753.386 39.6149 753.428 39.5723L756.49 36.513L756.491 36.513L756.497 36.5064C756.539 36.4633 756.591 36.4367 756.645 36.4282C756.699 36.4197 756.755 36.429 756.805 36.4558C756.805 36.456 756.806 36.4562 756.806 36.4564L760.586 38.5469L760.832 38.683L761.076 38.5435C761.994 38.0189 762.966 37.6007 763.973 37.2966L764.232 37.2186L764.308 36.9598L765.569 32.7004C765.569 32.7001 765.569 32.6998 765.569 32.6994C765.587 32.6393 765.623 32.5888 765.669 32.5538C765.715 32.5191 765.769 32.5011 765.823 32.5007H770.083V32.5008L770.095 32.5006C770.149 32.4993 770.203 32.5156 770.25 32.5487C770.295 32.5807 770.331 32.6272 770.351 32.6834L771.609 36.9464L771.685 37.2044L771.942 37.2831C772.942 37.5889 773.905 38.007 774.815 38.53L775.058 38.6697L775.304 38.5351L779.149 36.4306C779.149 36.4305 779.149 36.4304 779.15 36.4304C779.2 36.4033 779.256 36.3939 779.31 36.4024C779.364 36.4109 779.417 36.4375 779.458 36.4806L779.46 36.482L782.473 39.5815L782.476 39.5844C782.518 39.6271 782.548 39.6843 782.557 39.7481C782.567 39.812 782.556 39.8768 782.527 39.9325C782.527 39.9325 782.527 39.9326 782.527 39.9327L780.459 43.8964L780.338 44.129L780.46 44.3609C780.948 45.2853 781.336 46.2611 781.619 47.2715ZM763.817 57.6915C765.04 58.5285 766.479 58.976 767.952 58.976C769.928 58.976 771.821 58.1719 773.214 56.7448C774.607 55.3181 775.388 53.3855 775.388 51.3728C775.388 49.8717 774.953 48.4033 774.138 47.1534C773.322 45.9032 772.162 44.9271 770.802 44.3501C769.442 43.7731 767.944 43.6219 766.5 43.9163C765.055 44.2106 763.73 44.9367 762.691 46.0009C761.652 47.0649 760.945 48.4192 760.659 49.8918C760.374 51.3643 760.52 52.8907 761.081 54.2786C761.643 55.6665 762.594 56.8546 763.817 57.6915Z" fill="#3EAFD1" stroke="#0E3572"/>
<path d="M824.125 78.1156L824.198 78.3793L824.459 78.4599L827.353 79.3529C827.356 79.3554 827.358 79.3588 827.361 79.3632C827.367 79.3731 827.371 79.3864 827.37 79.401L827.37 79.4125V79.4239V82.5145C827.369 82.5295 827.365 82.5425 827.358 82.5516C827.352 82.56 827.346 82.5638 827.341 82.5654L824.39 83.4708L824.13 83.5505L824.055 83.8118C823.86 84.4994 823.593 85.1632 823.261 85.7918L823.139 86.0231L823.259 86.2554L824.714 89.0649C824.714 89.0651 824.715 89.0652 824.715 89.0653C824.72 89.0769 824.723 89.0915 824.721 89.1063C824.719 89.1213 824.712 89.1327 824.705 89.1396L824.703 89.1417L822.607 91.309L822.605 91.3111C822.598 91.318 822.592 91.3202 822.588 91.3207C822.585 91.3213 822.581 91.3209 822.575 91.3182C822.575 91.3181 822.575 91.3181 822.575 91.3181L819.848 89.8133L819.604 89.6789L819.362 89.815C818.758 90.154 818.121 90.4254 817.462 90.6249L817.201 90.7039L817.126 90.9659L816.25 94.0267C816.246 94.0396 816.239 94.0481 816.233 94.0527C816.227 94.0571 816.222 94.0583 816.218 94.0583H813.258C813.254 94.0583 813.249 94.0571 813.244 94.0527C813.237 94.048 813.23 94.0395 813.226 94.0266C813.226 94.0262 813.226 94.0258 813.226 94.0253L812.35 90.9746L812.275 90.7117L812.013 90.6334C811.348 90.4349 810.705 90.1635 810.096 89.8235L809.853 89.6883L809.61 89.8224L806.901 91.3181C806.901 91.3181 806.901 91.3181 806.901 91.3181C806.896 91.3209 806.891 91.3213 806.888 91.3207C806.884 91.3202 806.878 91.318 806.871 91.3111L806.869 91.309L804.773 89.1417L804.771 89.1396C804.764 89.1327 804.757 89.1213 804.755 89.1063C804.753 89.0913 804.756 89.0765 804.762 89.0649L804.763 89.062L806.202 86.2146L806.32 85.9799L806.194 85.7491C805.845 85.1115 805.565 84.436 805.358 83.7348L805.282 83.4781L805.027 83.3988L802.109 82.4932C802.109 82.4931 802.109 82.4931 802.109 82.493C802.104 82.4914 802.098 82.4876 802.092 82.479L801.685 82.7704L802.092 82.479C802.085 82.4699 802.08 82.4569 802.08 82.4419V79.3803C802.08 79.3652 802.085 79.3523 802.092 79.3432L801.685 79.0518L802.092 79.3431C802.098 79.3345 802.104 79.3307 802.109 79.3292C802.109 79.3291 802.109 79.329 802.109 79.329L805.01 78.4231L805.267 78.3428L805.341 78.0838C805.546 77.3707 805.827 76.6835 806.178 76.0348L806.304 75.8009L806.181 75.5653L804.762 72.8479C804.762 72.8477 804.761 72.8474 804.761 72.8472C804.756 72.8357 804.753 72.8213 804.755 72.8065L804.261 72.7334L804.755 72.8065C804.757 72.7919 804.764 72.7808 804.77 72.7738L806.9 70.6265L806.9 70.6266L806.906 70.6199C806.913 70.613 806.919 70.6108 806.923 70.6103C806.926 70.6097 806.93 70.61 806.935 70.6126L809.564 72.0802L809.812 72.2185L810.058 72.0768C810.687 71.7142 811.352 71.4253 812.042 71.2152L812.3 71.1365L812.376 70.8775L813.252 67.8876C813.252 67.8873 813.252 67.8871 813.252 67.8869C813.257 67.8736 813.264 67.8649 813.27 67.8602C813.276 67.8557 813.281 67.8546 813.284 67.8545H816.247V67.8546L816.258 67.8544C816.262 67.8543 816.267 67.8552 816.272 67.8594C816.278 67.8632 816.284 67.8701 816.289 67.8806L817.162 70.868L817.237 71.1262L817.494 71.2055C818.178 71.4168 818.838 71.7057 819.461 72.0671L819.706 72.2091L819.954 72.0722L822.628 70.5948C822.628 70.5948 822.628 70.5947 822.628 70.5947C822.633 70.5919 822.637 70.5916 822.641 70.5921C822.645 70.5927 822.651 70.5949 822.657 70.6017L822.659 70.6031L824.755 72.7794L824.755 72.7795L824.758 72.7823C824.765 72.7893 824.771 72.8006 824.774 72.8156C824.776 72.8305 824.773 72.8452 824.767 72.8568C824.767 72.8568 824.767 72.8569 824.767 72.857L823.329 75.6398L823.21 75.8706L823.33 76.1009C823.664 76.7406 823.931 77.4161 824.125 78.1156ZM811.8 85.5147C812.676 86.1197 813.707 86.4438 814.764 86.4438C816.182 86.4438 817.538 85.8615 818.535 84.8307C819.532 83.8004 820.089 82.4065 820.089 80.9564C820.089 79.8748 819.779 78.8161 819.196 77.9142C818.613 77.0121 817.782 76.3065 816.807 75.8891C815.832 75.4716 814.759 75.3621 813.722 75.5751C812.686 75.7882 811.737 76.3136 810.993 77.0822C810.25 77.8506 809.746 78.8277 809.541 79.889C809.337 80.9502 809.442 82.0504 809.843 83.051C810.244 84.0517 810.924 84.9098 811.8 85.5147Z" fill="#ED1C24" stroke="#ED1C24"/>
<circle cx="768" cy="50.7147" r="9" fill="#3EAFD1"/>
<circle cx="814.983" cy="80.6981" r="6.98334" fill="#ED1C24"/>
<g clip-path="url(#clip2_523:2886)">
<path d="M812.227 81.107C811.642 80.5093 811.32 79.7236 811.32 78.8944C811.32 77.1411 812.747 75.7147 814.5 75.7147C816.253 75.7147 817.68 77.1411 817.68 78.8944C817.68 80.3909 816.64 81.6492 815.246 81.9856C815.097 82.2438 814.819 82.4178 814.5 82.4178C814.025 82.4178 813.641 82.0331 813.641 81.5585C813.641 81.0839 814.025 80.6991 814.5 80.6991C814.805 80.6991 815.073 80.8585 815.226 81.0984C816.151 80.793 816.82 79.9205 816.82 78.8944C816.82 77.615 815.779 76.5741 814.5 76.5741C813.221 76.5741 812.18 77.615 812.18 78.8944C812.18 79.4976 812.415 80.0699 812.841 80.5061C813.007 80.6757 813.004 80.9477 812.835 81.1137C812.665 81.2796 812.393 81.2767 812.227 81.107ZM819.127 82.6974C818.763 82.3771 818.321 82.1003 817.813 81.8748C817.596 81.7784 817.343 81.8761 817.246 82.093C817.15 82.3098 817.247 82.5638 817.464 82.6601C817.892 82.8503 818.261 83.08 818.56 83.3429C818.929 83.667 819.141 84.1363 819.141 84.6307V85.4257C819.141 85.6626 818.948 85.8553 818.711 85.8553H810.289C810.052 85.8553 809.859 85.6626 809.859 85.4257V84.6307C809.859 84.1363 810.071 83.667 810.44 83.3429C810.8 83.0265 811.45 82.5918 812.504 82.3181C812.734 82.2585 812.872 82.0238 812.812 81.7942C812.752 81.5645 812.518 81.4267 812.288 81.4864C811.071 81.8025 810.303 82.3194 809.873 82.6974C809.318 83.1846 809 83.8893 809 84.6307V85.4257C809 86.1365 809.578 86.7147 810.289 86.7147H818.711C819.422 86.7147 820 86.1365 820 85.4257V84.6307C820 83.8893 819.682 83.1846 819.127 82.6974Z" fill="white"/>
</g>
<g clip-path="url(#clip3_523:2886)">
<path d="M766.606 44.0005C762.963 44.0005 760 46.9639 760 50.6062C760 54.2487 762.963 57.2119 766.606 57.2119C770.248 57.2119 773.211 54.2487 773.211 50.6062C773.211 46.9639 770.248 44.0005 766.606 44.0005ZM766.606 55.9924C763.636 55.9924 761.22 53.5761 761.22 50.6062C761.22 47.6363 763.636 45.22 766.606 45.22C769.576 45.22 771.992 47.6363 771.992 50.6062C771.992 53.5761 769.576 55.9924 766.606 55.9924Z" fill="white"/>
<path d="M774.821 57.9595L771.325 54.4636C771.087 54.2254 770.701 54.2254 770.463 54.4636C770.225 54.7016 770.225 55.0878 770.463 55.3258L773.959 58.8217C774.078 58.9408 774.234 59.0004 774.39 59.0004C774.546 59.0004 774.702 58.9408 774.821 58.8217C775.059 58.5837 775.059 58.1975 774.821 57.9595Z" fill="white"/>
</g>
<path d="M822 23.7667C816.477 23.7667 812 28.2773 812 33.8414C812 39.4056 816.477 43.9161 822 43.9161C827.523 43.9161 832 39.4056 832 33.8414C831.994 28.2801 827.52 23.7732 822 23.7667ZM822 42.9087C817.229 42.9009 813.292 39.1445 813.026 34.3453H815V33.3378H813.026C813.092 32.0903 813.415 30.8707 813.975 29.7563L815.687 30.7515L816.187 29.8792L814.474 28.8828C815.154 27.838 816.041 26.9454 817.077 26.2599L818.066 27.9856L818.933 27.482L817.945 25.7576C819.051 25.1934 820.262 24.8673 821.5 24.8005V26.7893H822.5V24.8C823.738 24.8669 824.949 25.1927 826.055 25.7572L825.067 27.4813L825.933 27.9851L826.922 26.2594C827.959 26.9447 828.845 27.8376 829.525 28.8821L827.812 29.8785L828.312 30.7511L830.024 29.7556C830.584 30.87 830.908 32.0899 830.974 33.3371H829V34.3448H830.974C830.708 39.1443 826.771 42.9009 822 42.9087Z" fill="#0E3572"/>
<path d="M825.146 29.9594L822.643 32.4814C822.443 32.383 822.223 32.3313 822 32.3302C821.165 32.3233 820.482 32.9995 820.475 33.8409C820.468 34.6825 821.139 35.3704 821.974 35.3775C822.809 35.3847 823.492 34.7084 823.5 33.867C823.501 33.6339 823.45 33.4033 823.35 33.1932L825.853 30.6716L825.146 29.9594ZM822 34.3452C821.724 34.3452 821.5 34.1197 821.5 33.8414C821.5 33.5633 821.724 33.3378 822 33.3378C822.135 33.3373 822.264 33.3931 822.356 33.4918C822.449 33.5838 822.501 33.71 822.5 33.8414C822.5 34.1197 822.276 34.3452 822 34.3452Z" fill="#0E3572"/>
<path d="M820.5 37.3677H823.5V38.3738H820.5V37.3677Z" fill="#0E3572"/>
<path d="M994.002 134V118.908H1001.92C1002.92 118.908 1003.74 119.099 1004.39 119.48C1005.05 119.847 1005.54 120.353 1005.86 120.998C1006.2 121.643 1006.37 122.377 1006.37 123.198C1006.37 124.269 1006.12 125.178 1005.62 125.926C1005.13 126.659 1004.49 127.18 1003.68 127.488L1006.89 134H1004.98L1001.97 127.796H995.74V134H994.002ZM995.74 126.3H1001.75C1002.64 126.3 1003.34 126.029 1003.86 125.486C1004.37 124.929 1004.63 124.166 1004.63 123.198C1004.63 122.611 1004.52 122.113 1004.3 121.702C1004.08 121.291 1003.76 120.976 1003.33 120.756C1002.9 120.521 1002.38 120.404 1001.75 120.404H995.74V126.3ZM1013.9 134.264C1012.8 134.264 1011.87 134.051 1011.11 133.626C1010.35 133.186 1009.77 132.519 1009.37 131.624C1008.98 130.729 1008.78 129.593 1008.78 128.214C1008.78 126.821 1008.98 125.684 1009.37 124.804C1009.77 123.909 1010.36 123.249 1011.13 122.824C1011.91 122.384 1012.88 122.164 1014.04 122.164C1015.11 122.164 1016 122.377 1016.72 122.802C1017.45 123.227 1018 123.843 1018.37 124.65C1018.75 125.457 1018.94 126.447 1018.94 127.62V128.632H1010.43C1010.43 129.644 1010.57 130.473 1010.85 131.118C1011.13 131.763 1011.52 132.233 1012.03 132.526C1012.56 132.805 1013.21 132.944 1013.97 132.944C1014.53 132.944 1015.01 132.871 1015.42 132.724C1015.85 132.577 1016.19 132.379 1016.46 132.13C1016.74 131.866 1016.95 131.558 1017.09 131.206C1017.24 130.854 1017.31 130.487 1017.31 130.106H1018.85C1018.85 130.678 1018.74 131.221 1018.52 131.734C1018.32 132.233 1018.01 132.673 1017.6 133.054C1017.2 133.435 1016.7 133.736 1016.08 133.956C1015.47 134.161 1014.74 134.264 1013.9 134.264ZM1010.43 127.378H1017.29C1017.29 126.645 1017.2 126.036 1017.03 125.552C1016.87 125.053 1016.64 124.657 1016.35 124.364C1016.05 124.056 1015.7 123.836 1015.29 123.704C1014.89 123.572 1014.45 123.506 1013.95 123.506C1013.23 123.506 1012.61 123.645 1012.1 123.924C1011.59 124.188 1011.19 124.606 1010.91 125.178C1010.65 125.75 1010.49 126.483 1010.43 127.378ZM1021.34 134V118.094H1022.92V134H1021.34ZM1030.49 134.264C1029.39 134.264 1028.46 134.051 1027.7 133.626C1026.93 133.186 1026.35 132.519 1025.96 131.624C1025.56 130.729 1025.36 129.593 1025.36 128.214C1025.36 126.821 1025.56 125.684 1025.96 124.804C1026.35 123.909 1026.94 123.249 1027.72 122.824C1028.5 122.384 1029.46 122.164 1030.62 122.164C1031.69 122.164 1032.59 122.377 1033.31 122.802C1034.04 123.227 1034.59 123.843 1034.96 124.65C1035.34 125.457 1035.53 126.447 1035.53 127.62V128.632H1027.01C1027.01 129.644 1027.15 130.473 1027.43 131.118C1027.71 131.763 1028.11 132.233 1028.62 132.526C1029.15 132.805 1029.79 132.944 1030.56 132.944C1031.11 132.944 1031.6 132.871 1032.01 132.724C1032.43 132.577 1032.78 132.379 1033.04 132.13C1033.32 131.866 1033.53 131.558 1033.68 131.206C1033.83 130.854 1033.9 130.487 1033.9 130.106H1035.44C1035.44 130.678 1035.33 131.221 1035.11 131.734C1034.91 132.233 1034.6 132.673 1034.19 133.054C1033.79 133.435 1033.28 133.736 1032.67 133.956C1032.05 134.161 1031.33 134.264 1030.49 134.264ZM1027.01 127.378H1033.88C1033.88 126.645 1033.79 126.036 1033.61 125.552C1033.45 125.053 1033.23 124.657 1032.93 124.364C1032.64 124.056 1032.29 123.836 1031.88 123.704C1031.48 123.572 1031.03 123.506 1030.53 123.506C1029.82 123.506 1029.2 123.645 1028.69 123.924C1028.17 124.188 1027.78 124.606 1027.5 125.178C1027.23 125.75 1027.07 126.483 1027.01 127.378ZM1040.81 134.264C1040.35 134.264 1039.91 134.205 1039.47 134.088C1039.03 133.985 1038.63 133.817 1038.28 133.582C1037.94 133.333 1037.67 133.003 1037.46 132.592C1037.26 132.181 1037.16 131.675 1037.16 131.074C1037.16 130.282 1037.35 129.637 1037.73 129.138C1038.12 128.625 1038.67 128.229 1039.38 127.95C1040.08 127.657 1040.91 127.459 1041.86 127.356C1042.83 127.253 1043.88 127.202 1045.01 127.202V125.728C1045.01 125.259 1044.92 124.863 1044.75 124.54C1044.59 124.203 1044.29 123.946 1043.87 123.77C1043.46 123.579 1042.87 123.484 1042.11 123.484C1041.37 123.484 1040.79 123.579 1040.37 123.77C1039.94 123.961 1039.64 124.21 1039.47 124.518C1039.31 124.811 1039.22 125.141 1039.22 125.508V125.86H1037.71C1037.69 125.787 1037.68 125.713 1037.68 125.64C1037.68 125.567 1037.68 125.479 1037.68 125.376C1037.68 124.643 1037.88 124.041 1038.26 123.572C1038.64 123.103 1039.18 122.751 1039.88 122.516C1040.59 122.281 1041.4 122.164 1042.3 122.164C1043.23 122.164 1044.01 122.303 1044.64 122.582C1045.27 122.846 1045.75 123.227 1046.09 123.726C1046.43 124.225 1046.59 124.826 1046.59 125.53V132.174C1046.59 132.453 1046.65 132.651 1046.75 132.768C1046.87 132.871 1047.02 132.922 1047.21 132.922H1048.13V133.934C1047.91 134.022 1047.68 134.095 1047.43 134.154C1047.2 134.213 1046.95 134.242 1046.68 134.242C1046.3 134.242 1045.99 134.161 1045.76 134C1045.54 133.839 1045.38 133.611 1045.27 133.318C1045.19 133.025 1045.13 132.702 1045.1 132.35H1044.94C1044.67 132.746 1044.31 133.091 1043.87 133.384C1043.44 133.663 1042.97 133.875 1042.46 134.022C1041.95 134.183 1041.4 134.264 1040.81 134.264ZM1041.14 132.922C1041.62 132.922 1042.09 132.841 1042.55 132.68C1043 132.519 1043.41 132.299 1043.78 132.02C1044.15 131.727 1044.44 131.382 1044.66 130.986C1044.89 130.59 1045.01 130.15 1045.01 129.666V128.478C1043.65 128.478 1042.5 128.551 1041.58 128.698C1040.67 128.845 1039.98 129.101 1039.51 129.468C1039.06 129.835 1038.83 130.348 1038.83 131.008C1038.83 131.448 1038.92 131.815 1039.11 132.108C1039.32 132.387 1039.6 132.592 1039.95 132.724C1040.3 132.856 1040.7 132.922 1041.14 132.922ZM1053.64 134.264C1052.87 134.264 1052.2 134.183 1051.61 134.022C1051.03 133.875 1050.53 133.655 1050.14 133.362C1049.76 133.054 1049.46 132.687 1049.26 132.262C1049.07 131.837 1048.97 131.345 1048.97 130.788C1048.97 130.729 1048.97 130.671 1048.97 130.612C1048.97 130.539 1048.98 130.473 1048.99 130.414H1050.56C1050.54 130.487 1050.53 130.553 1050.53 130.612C1050.53 130.656 1050.53 130.7 1050.53 130.744C1050.55 131.316 1050.69 131.763 1050.95 132.086C1051.22 132.394 1051.59 132.614 1052.07 132.746C1052.56 132.878 1053.12 132.944 1053.75 132.944C1054.29 132.944 1054.77 132.871 1055.2 132.724C1055.64 132.563 1055.98 132.335 1056.23 132.042C1056.5 131.749 1056.63 131.389 1056.63 130.964C1056.63 130.421 1056.46 130.011 1056.12 129.732C1055.8 129.453 1055.37 129.241 1054.85 129.094C1054.32 128.933 1053.77 128.764 1053.2 128.588C1052.73 128.456 1052.26 128.317 1051.81 128.17C1051.36 128.009 1050.94 127.811 1050.56 127.576C1050.19 127.341 1049.9 127.041 1049.68 126.674C1049.46 126.307 1049.35 125.845 1049.35 125.288C1049.35 124.804 1049.44 124.371 1049.63 123.99C1049.84 123.609 1050.12 123.286 1050.49 123.022C1050.87 122.743 1051.33 122.531 1051.88 122.384C1052.42 122.237 1053.03 122.164 1053.72 122.164C1054.49 122.164 1055.14 122.252 1055.68 122.428C1056.22 122.604 1056.66 122.846 1057 123.154C1057.34 123.447 1057.59 123.785 1057.75 124.166C1057.91 124.533 1057.99 124.921 1057.99 125.332C1057.99 125.391 1057.98 125.457 1057.97 125.53C1057.97 125.603 1057.97 125.669 1057.97 125.728H1056.41V125.442C1056.41 125.134 1056.33 124.833 1056.17 124.54C1056.02 124.247 1055.75 123.997 1055.35 123.792C1054.97 123.587 1054.4 123.484 1053.64 123.484C1053.18 123.484 1052.79 123.528 1052.45 123.616C1052.13 123.689 1051.85 123.799 1051.61 123.946C1051.39 124.093 1051.22 124.276 1051.11 124.496C1051 124.701 1050.95 124.943 1050.95 125.222C1050.95 125.647 1051.08 125.977 1051.35 126.212C1051.63 126.432 1051.99 126.615 1052.43 126.762C1052.87 126.894 1053.34 127.041 1053.83 127.202C1054.33 127.349 1054.84 127.503 1055.35 127.664C1055.88 127.825 1056.36 128.023 1056.8 128.258C1057.24 128.493 1057.6 128.808 1057.86 129.204C1058.12 129.585 1058.26 130.091 1058.26 130.722C1058.26 131.309 1058.14 131.829 1057.9 132.284C1057.67 132.724 1057.35 133.091 1056.94 133.384C1056.53 133.677 1056.03 133.897 1055.46 134.044C1054.9 134.191 1054.3 134.264 1053.64 134.264ZM1065.14 134.264C1064.04 134.264 1063.11 134.051 1062.35 133.626C1061.59 133.186 1061.01 132.519 1060.61 131.624C1060.22 130.729 1060.02 129.593 1060.02 128.214C1060.02 126.821 1060.22 125.684 1060.61 124.804C1061.01 123.909 1061.6 123.249 1062.37 122.824C1063.15 122.384 1064.12 122.164 1065.28 122.164C1066.35 122.164 1067.24 122.377 1067.96 122.802C1068.69 123.227 1069.24 123.843 1069.61 124.65C1069.99 125.457 1070.18 126.447 1070.18 127.62V128.632H1061.67C1061.67 129.644 1061.81 130.473 1062.09 131.118C1062.37 131.763 1062.76 132.233 1063.27 132.526C1063.8 132.805 1064.45 132.944 1065.21 132.944C1065.77 132.944 1066.25 132.871 1066.66 132.724C1067.09 132.577 1067.43 132.379 1067.7 132.13C1067.98 131.866 1068.19 131.558 1068.33 131.206C1068.48 130.854 1068.55 130.487 1068.55 130.106H1070.09C1070.09 130.678 1069.98 131.221 1069.76 131.734C1069.56 132.233 1069.25 132.673 1068.84 133.054C1068.44 133.435 1067.94 133.736 1067.32 133.956C1066.71 134.161 1065.98 134.264 1065.14 134.264ZM1061.67 127.378H1068.53C1068.53 126.645 1068.44 126.036 1068.27 125.552C1068.11 125.053 1067.88 124.657 1067.59 124.364C1067.29 124.056 1066.94 123.836 1066.53 123.704C1066.13 123.572 1065.69 123.506 1065.19 123.506C1064.47 123.506 1063.85 123.645 1063.34 123.924C1062.83 124.188 1062.43 124.606 1062.15 125.178C1061.89 125.75 1061.73 126.483 1061.67 127.378Z" fill="#2D2D2D"/>
<path fill-rule="evenodd" clip-rule="evenodd" d="M1042.67 72.7437V56.9742C1042.67 53.7746 1040.12 51.2606 1036.87 51.2606H1021.58C1021.34 59.2596 1025.28 62.6878 1025.28 62.6878L1037.34 74.572C1037.34 74.572 1038.27 75.2576 1039.19 75.7147H1039.89C1041.51 75.7147 1042.67 74.3435 1042.67 72.7437Z" fill="#ED1C24"/>
<path fill-rule="evenodd" clip-rule="evenodd" d="M1015.54 31.7147H1036.69C1039.91 31.7147 1042.67 34.4287 1042.67 37.595V58.4021C1042.67 55.2358 1039.91 52.5218 1036.69 52.5218H1021.57L1021.51 37.595C1021.51 34.4287 1018.76 31.7147 1015.54 31.7147Z" fill="#0E3572"/>
<path fill-rule="evenodd" clip-rule="evenodd" d="M999.985 31.7147H1015.83C1019.04 31.7147 1021.57 34.1971 1021.57 37.3566V52.251C1013.53 52.4767 1010.09 48.6403 1010.09 48.6403L998.148 36.9052C998.148 36.9052 997.459 36.0025 997 35.0998V34.6485C997 33.0688 998.378 31.7147 999.985 31.7147Z" fill="#3EAFD1"/>
<path d="M859 52.7147L992.005 52.6559" stroke="#58595B" stroke-dasharray="5 5"/>
<path d="M933 52.5L921.75 58.1292L921.75 46.8708L933 52.5Z" fill="#ED1C24"/>
<defs>
<clipPath id="clip0_523:2886">
<rect width="77" height="70" fill="white" transform="translate(216 15.0005)"/>
</clipPath>
<clipPath id="clip1_523:2886">
<rect width="77" height="62.5284" fill="white" transform="translate(495 22.0005)"/>
</clipPath>
<clipPath id="clip2_523:2886">
<rect width="11" height="11" fill="white" transform="translate(809 75.7147)"/>
</clipPath>
<clipPath id="clip3_523:2886">
<rect width="15" height="15" fill="white" transform="translate(760 44.0005)"/>
</clipPath>
</defs>
</svg>
